<svg xmlns="http://www.w3.org/2000/svg" fill="none" viewBox="0 0 197.89 40.75"><path d="M169.687 23.2388C169.687 23.9099 169.688 24.5811 169.687 25.2522C169.686 25.8035 169.788 25.9163 170.359 25.9108C170.718 25.9075 171.077 25.8456 171.436 25.8451C173.822 25.8391 176.209 25.8495 178.595 25.8347C179.006 25.832 179.302 25.9409 179.585 26.2617C180.606 27.4168 181.657 28.5445 182.699 29.6799C183.936 31.0277 185.179 32.3705 186.416 33.7189C187.076 34.4376 187.726 35.1657 188.387 35.8834C188.606 36.1216 188.856 36.3318 189.072 36.5726C189.277 36.8015 189.264 36.9137 189.035 37.1206C188.928 37.2164 188.801 37.2914 188.679 37.3675C187.492 38.0989 186.284 38.793 184.98 39.289C184.206 39.5835 183.418 39.8584 182.616 40.0532C181.533 40.316 180.435 40.5229 179.335 40.6948C178.804 40.7775 178.252 40.7129 177.711 40.7348C175.535 40.8218 173.453 40.3401 171.392 39.7067C169.51 39.1286 167.801 38.2018 166.176 37.1075C164.82 36.1933 163.604 35.0951 162.541 33.8546C161.338 32.4499 160.305 30.9165 159.503 29.2277C158.876 27.9084 158.411 26.536 158.052 25.128C157.847 24.3232 157.718 23.4889 157.652 22.6601C157.564 21.5565 157.516 20.443 157.553 19.3372C157.585 18.3628 157.6 17.3741 157.911 16.4259C157.983 16.2059 157.963 15.9568 158.012 15.7268C158.109 15.2769 158.389 15.0842 158.832 15.1258C159.118 15.1526 159.406 15.1827 159.692 15.1827C166.996 15.186 174.3 15.1832 181.604 15.1871C182.694 15.1876 183.621 15.5424 184.247 16.5064C184.708 17.2159 184.784 17.9708 184.461 18.7399C183.96 19.9355 182.827 20.6423 181.585 20.4967C181.287 20.4616 180.977 20.5487 180.673 20.547C177.313 20.5273 173.953 20.4999 170.592 20.4775C169.675 20.4715 169.675 20.4769 169.687 21.3775C169.687 21.3955 169.687 21.4142 169.687 21.4322C169.687 22.0344 169.687 22.6366 169.687 23.2388Z" fill="#000"></path> <path d="M171.852 9.52805C168.652 9.52805 165.452 9.52586 162.251 9.53134C161.966 9.53188 161.68 9.58115 161.393 9.60743C161.304 9.61564 161.213 9.63535 161.124 9.62878C160.733 9.60086 160.608 9.35616 160.846 9.04357C161.286 8.46657 161.735 7.89724 162.197 7.33831C163.09 6.25931 164.077 5.2679 165.172 4.40679C166.152 3.63655 167.173 2.9101 168.307 2.37087C168.682 2.19241 169.054 2.00738 169.428 1.82891C171.189 0.99243 173.058 0.544628 174.963 0.200838C176.291 -0.0383916 177.624 -0.00664031 178.957 0.0136148C179.439 0.0207315 179.924 0.124744 180.399 0.225473C181.58 0.475651 182.763 0.696815 183.916 1.08823C185.343 1.57326 186.693 2.21431 187.992 2.96156C188.693 3.36447 189.333 3.87796 189.982 4.36628C190.429 4.7035 190.856 5.07083 191.271 5.44692C192.229 6.31405 193.057 7.30929 193.828 8.33847C194.433 9.14594 194.932 10.0426 195.413 10.9355C196.287 12.5581 196.891 14.2886 197.278 16.0951C197.442 16.8577 197.628 17.6159 197.793 18.3784C197.839 18.5898 197.865 18.8093 197.868 19.0255C197.883 20.0284 197.888 21.0313 197.891 22.0348C197.892 22.1421 197.878 22.2581 197.838 22.3561C197.497 23.1696 197.431 24.0493 197.218 24.8918C196.975 25.857 196.667 26.809 196.334 27.7473C195.808 29.2286 195.006 30.5731 194.19 31.9061C194.114 32.0304 194.034 32.1519 193.949 32.2702C193.718 32.5921 193.559 32.6162 193.303 32.3375C192.74 31.7249 192.192 31.0998 191.633 30.4833C190.294 29.0053 188.954 27.5277 187.609 26.0551C187.329 25.748 187.025 25.4639 186.729 25.171C186.54 24.9838 186.52 24.8053 186.695 24.6039C186.789 24.496 186.907 24.4074 187.024 24.3225C187.781 23.7701 188.388 23.0596 188.889 22.2877C189.278 21.6871 189.524 20.9821 189.77 20.3005C190.567 18.0883 190.217 15.9495 189.183 13.924C188.425 12.4382 187.267 11.2919 185.783 10.5069C184.746 9.95833 183.652 9.62933 182.476 9.59867C181.665 9.57732 180.854 9.53243 180.043 9.52969C177.313 9.52258 174.582 9.52805 171.852 9.52805Z" fill="#000"></path> <path d="M134.519 24.0585C134.519 23.8494 134.528 23.6528 134.517 23.4569C134.492 22.9855 134.431 22.5147 134.431 22.0439C134.424 18.231 134.429 14.4187 134.423 10.6058C134.423 10.2992 134.379 9.99157 134.343 9.6861C134.306 9.37735 134.411 9.19122 134.704 9.11568C134.807 9.0894 134.919 9.09159 135.027 9.09159C136.003 9.08995 136.979 9.08666 137.955 9.09213C138.462 9.09487 138.653 9.33739 138.589 9.85362C138.564 10.0512 138.55 10.2522 138.55 10.4514C138.548 17.1466 138.548 23.8417 138.551 30.5363C138.551 30.735 138.583 30.9332 138.594 31.1319C138.612 31.4532 138.488 31.6279 138.167 31.6334C137.245 31.6492 136.322 31.6563 135.402 31.623C135.221 31.6164 135.008 31.4489 134.877 31.2967C134.404 30.7482 133.961 30.1728 133.504 29.61C132.121 27.9081 130.729 26.2126 129.354 24.5046C127.955 22.7687 126.567 21.024 125.184 19.275C124.555 18.479 123.947 17.665 123.334 16.8559C123.212 16.6938 123.065 16.5975 122.872 16.679C122.687 16.7573 122.68 16.9407 122.731 17.1033C122.932 17.7427 122.888 18.4002 122.888 19.0544C122.89 22.4841 122.887 25.9137 122.89 29.3434C122.891 29.9451 122.907 30.5461 122.918 31.1478C122.925 31.5173 122.858 31.5989 122.5 31.6399C122.446 31.6459 122.392 31.6449 122.337 31.6449C121.307 31.6454 120.276 31.6498 119.246 31.6432C118.773 31.6405 118.691 31.5326 118.694 31.0525C118.72 26.9687 118.748 22.8853 118.765 18.8015C118.775 16.3205 118.771 13.8395 118.763 11.3585C118.762 10.8505 118.705 10.3425 118.698 9.83391C118.689 9.18575 118.786 9.09378 119.402 9.09159C120.143 9.08885 120.885 9.10254 121.626 9.08611C121.96 9.07845 122.2 9.1748 122.414 9.4518C123.213 10.4837 124.029 11.503 124.852 12.5163C125.697 13.5576 126.566 14.5802 127.412 15.6225C128.154 16.5378 128.875 17.4717 129.611 18.3925C130.608 19.6379 131.615 20.874 132.608 22.1222C133.026 22.6472 133.423 23.1886 133.823 23.7284C133.979 23.937 134.123 24.1455 134.519 24.0585Z" fill="#000"></path> <path d="M5.28429 9.09036C6.74896 9.09036 8.21418 9.0619 9.67778 9.09912C10.8848 9.13033 12.088 9.25897 13.251 9.62192C14.343 9.96243 15.396 10.413 16.2808 11.1443C17.3294 12.0115 18.0888 13.1113 18.5212 14.4268C18.8488 15.4236 19.0078 16.4452 18.9448 17.4902C18.889 18.4137 18.7251 19.3088 18.379 20.1902C17.8594 21.5144 16.999 22.5239 15.881 23.3341C15.5186 23.5969 15.1025 23.7879 14.6995 23.9877C14.2248 24.2231 14.1917 24.3671 14.5058 24.8094C15.4513 26.1419 16.3811 27.4853 17.3283 28.8161C17.8648 29.5699 18.4219 30.309 18.9731 31.0518C19.081 31.1974 19.2307 31.3316 19.1217 31.5341C19.0175 31.7285 18.8439 31.6907 18.6519 31.6858C17.6413 31.6573 16.629 31.6277 15.6189 31.6595C15.0987 31.6759 14.7537 31.5467 14.4483 31.0885C13.1914 29.1999 11.8959 27.3375 10.613 25.4663C10.4134 25.1751 10.1302 25.0421 9.78247 25.0443C8.30044 25.0541 6.8184 25.0645 5.33636 25.0749C5.20997 25.076 5.08249 25.0673 4.95663 25.0782C4.55141 25.1127 4.42284 25.2474 4.41525 25.6634C4.40711 26.0828 4.41362 26.5026 4.41362 26.9225C4.41416 28.0705 4.41036 29.219 4.4185 30.367C4.42013 30.5832 4.46244 30.8 4.49553 31.0157C4.56877 31.4958 4.48414 31.6151 4.01165 31.6403C3.74095 31.6546 3.46917 31.6442 3.19794 31.6442C2.31208 31.6442 1.42568 31.6507 0.539817 31.6409C0.0917345 31.6359 -0.0373741 31.4701 0.00873616 31.0332C0.0369448 30.7628 0.0711206 30.4913 0.0711206 30.2203C0.0743754 23.6516 0.0743754 17.0824 0.0722055 10.5137C0.0722055 10.2958 0.0646109 10.0763 0.0358598 9.86061C-0.0460536 9.25678 0.0846824 9.09036 0.675436 9.08982C2.21172 9.08927 3.748 9.09036 5.28429 9.09036ZM4.41308 17.1076C4.41308 18.3825 4.41145 19.657 4.41362 20.9319C4.4147 21.5768 4.48034 21.6425 5.13511 21.6442C6.39907 21.6469 7.66303 21.6529 8.92699 21.6414C9.50202 21.6365 10.0825 21.6343 10.6515 21.5598C11.9773 21.3863 13.1534 20.8942 13.9785 19.7664C14.1364 19.5508 14.2638 19.3082 14.3778 19.0652C14.7353 18.3042 14.7993 17.4929 14.7564 16.6658C14.6848 15.2731 14.0311 14.1952 12.8887 13.4731C12.0093 12.918 10.9922 12.687 9.9501 12.6717C8.59609 12.652 7.24153 12.6679 5.88752 12.6657C5.70796 12.6651 5.52623 12.6618 5.34884 12.6361C4.57744 12.5244 4.40711 12.6761 4.41145 13.4474C4.41904 14.6671 4.41362 15.8873 4.41308 17.1076Z" fill="#000"></path> <path d="M113.694 20.6312C113.797 21.8952 113.478 23.1718 113.026 24.4342C112.327 26.3853 111.169 27.9767 109.576 29.2894C107.877 30.6892 105.933 31.4469 103.803 31.8191C101.712 32.1843 99.6572 31.9626 97.6571 31.3544C95.8935 30.8179 94.3453 29.8538 93.0173 28.5416C92.1705 27.7046 91.5098 26.7433 90.9527 25.6933C90.5062 24.8514 90.2225 23.9601 90.0017 23.0388C89.749 21.9861 89.6909 20.9148 89.7354 19.8434C89.8157 17.9263 90.3223 16.1378 91.2885 14.4588C91.908 13.3826 92.6967 12.4749 93.594 11.6647C94.3551 10.9777 95.2068 10.3908 96.174 10.0044C96.7089 9.79085 97.2139 9.46951 97.7651 9.33813C98.7952 9.09287 99.8286 8.80602 100.904 8.83667C101.931 8.86624 102.958 8.91003 103.984 8.9489C104.038 8.95109 104.092 8.95875 104.146 8.96915C105.569 9.2478 106.91 9.74651 108.179 10.4609C109.512 11.2109 110.57 12.268 111.516 13.4439C112.189 14.2809 112.639 15.2597 113.025 16.2626C113.555 17.6383 113.758 19.0693 113.694 20.6312ZM101.793 12.4788C101.397 12.4788 100.992 12.4251 100.605 12.4881C99.2004 12.7174 97.8877 13.2063 96.7539 14.0937C95.5946 15.0013 94.8086 16.2002 94.3491 17.5891C93.7578 19.3765 93.722 21.1972 94.2992 23.0016C94.9442 25.0189 96.2055 26.5216 98.0965 27.4648C98.4014 27.617 98.7415 27.6975 99.0464 27.8502C99.936 28.2947 100.912 28.2854 101.849 28.2893C102.807 28.2931 103.767 28.125 104.697 27.7654C105.84 27.323 106.831 26.6825 107.609 25.7585C108.68 24.4884 109.335 23.0284 109.49 21.3286C109.652 19.5341 109.387 17.8535 108.508 16.2829C107.673 14.7933 106.465 13.6952 104.901 13.0634C103.92 12.666 102.893 12.3277 101.793 12.4788Z" fill="#000"></path> <path d="M33.1471 9.09083C33.6495 9.09083 34.1518 9.0974 34.6541 9.08864C34.991 9.08262 35.1923 9.2567 35.3214 9.54739C35.6897 10.3778 36.0575 11.2089 36.4275 12.0382C37.0117 13.3477 37.6019 14.655 38.1824 15.9661C38.5496 16.7971 38.8947 17.6379 39.2646 18.4673C39.7604 19.5786 40.2736 20.6817 40.7732 21.7913C41.6374 23.7101 42.4972 25.6316 43.3592 27.5515C43.7981 28.5286 44.2353 29.5069 44.6812 30.4813C44.7789 30.6954 44.9177 30.8897 45.0219 31.1016C45.1987 31.4618 45.036 31.7207 44.6378 31.7136C43.5203 31.6934 42.4028 31.6627 41.2848 31.6468C40.981 31.6424 40.796 31.545 40.668 31.2373C40.0767 29.8118 39.4583 28.3983 38.8507 26.9799C38.6522 26.5168 38.4075 26.3652 37.8737 26.3914C37.4663 26.4112 37.0589 26.4582 36.6515 26.4588C34.0487 26.4648 31.4465 26.4637 28.8437 26.4588C28.6473 26.4582 28.452 26.4051 28.2551 26.3914C27.6975 26.3531 27.4034 26.5754 27.1957 27.1048C26.8843 27.8991 26.5447 28.6819 26.216 29.4697C26.0489 29.8709 25.8802 30.2717 25.7115 30.6724C25.6409 30.8394 25.5672 31.0052 25.4939 31.1711C25.3377 31.5264 25.0849 31.6611 24.684 31.6545C23.6381 31.637 22.5906 31.6758 21.5442 31.6731C21.4004 31.6726 21.2165 31.5981 21.1281 31.4925C21.069 31.4218 21.1124 31.2182 21.1677 31.1027C21.561 30.287 21.9901 29.4883 22.3677 28.666C23.0121 27.2635 23.63 25.8489 24.2549 24.4376C25.0855 22.561 25.9073 20.6806 26.7422 18.8056C27.1854 17.8104 27.6573 16.8283 28.0983 15.832C28.5095 14.904 28.8914 13.963 29.2972 13.0324C29.7822 11.92 30.2775 10.8114 30.7711 9.70286C30.9572 9.28462 31.2376 9.04101 31.7378 9.08152C32.2049 9.12039 32.6774 9.09083 33.1471 9.09083ZM32.9166 13.5393C32.7956 13.8513 32.6871 14.153 32.5635 14.448C31.7986 16.2732 31.0402 18.1011 30.2585 19.9191C29.8652 20.8344 29.4301 21.7317 29.0092 22.6349C28.8627 22.9492 28.9755 23.1895 29.3162 23.2065C29.5858 23.2201 29.857 23.1785 30.1277 23.1796C32.2971 23.1878 34.4664 23.1993 36.6353 23.2136C36.8251 23.2147 36.9938 23.1972 37.1094 23.0209C37.2282 22.8397 37.1642 22.6798 37.0768 22.5101C36.8365 22.0432 36.5821 21.5811 36.3732 21.0994C35.8308 19.8507 35.304 18.5943 34.7811 17.3374C34.3281 16.2491 33.8871 15.1559 33.445 14.0626C33.3565 13.8431 33.3045 13.6012 32.9166 13.5393Z" fill="#000"></path> <path d="M77.8909 31.997C77.209 31.9051 76.1479 31.8142 75.1096 31.604C74.4451 31.4693 73.8071 31.1819 73.1725 30.9235C71.7984 30.364 70.6364 29.4635 69.5775 28.4485C68.7366 27.6433 68.1009 26.6529 67.5915 25.5997C66.8879 24.1457 66.5093 22.614 66.4496 20.9804C66.4154 20.0459 66.4968 19.1323 66.5966 18.2153C66.6476 17.7494 66.8016 17.2934 66.9264 16.838C67.1982 15.8487 67.6506 14.9329 68.1969 14.0816C68.926 12.9457 69.8102 11.9329 70.9266 11.1528C71.3861 10.8315 71.8363 10.4932 72.3164 10.2063C72.6528 10.0054 73.0265 9.86308 73.3938 9.72129C74.8536 9.15633 76.3573 8.83335 77.931 8.82787C79.3263 8.82295 80.7014 8.89247 82.0549 9.28936C83.6774 9.76563 85.128 10.5288 86.3545 11.7107C86.4582 11.8109 86.5786 11.893 86.693 11.9817C87.2518 12.4141 87.2594 12.5296 86.7332 13.0278C86.2726 13.4641 85.8023 13.8895 85.3412 14.3247C85.1974 14.4604 85.0667 14.6104 84.9327 14.7566C84.6626 15.05 84.3875 15.1004 84.1483 14.8042C83.2125 13.6459 81.8813 13.157 80.5799 12.6249C80.2902 12.5066 79.9452 12.5225 79.6241 12.488C78.1252 12.3254 76.6459 12.4782 75.2653 13.0634C73.9059 13.6404 72.7428 14.5103 71.9183 15.8121C71.2825 16.8155 70.842 17.8748 70.7004 19.0458C70.6201 19.7109 70.6272 20.3897 70.6391 21.062C70.6581 22.1339 70.9847 23.1247 71.4382 24.0915C71.8808 25.0353 72.5074 25.8165 73.307 26.4559C73.7871 26.8402 74.3095 27.1703 74.814 27.5234C74.8731 27.565 74.9328 27.6159 75 27.6334C75.9727 27.8852 76.9161 28.2892 77.9468 28.2487C78.7567 28.217 79.572 28.2109 80.3732 28.102C80.8631 28.0352 81.3584 27.8524 81.801 27.6225C82.6473 27.184 83.5076 26.752 84.1304 25.9752C84.3702 25.6763 84.6317 25.7015 84.9154 25.9725C85.5685 26.596 86.2233 27.2179 86.8813 27.8365C87.1769 28.1146 87.1802 28.2372 86.8791 28.546C85.5495 29.9107 83.9812 30.8633 82.1585 31.4113C80.8853 31.7934 79.5888 31.9428 77.8909 31.997Z" fill="#000"></path> <path d="M52.8358 27.4452C52.8358 26.3508 52.8569 25.2565 52.8217 24.1633C52.8125 23.8737 52.6644 23.5682 52.5157 23.3076C52.021 22.4405 51.4975 21.5903 50.9849 20.7336C50.0426 19.1603 49.097 17.5886 48.1575 16.013C47.2185 14.4381 46.2919 12.8549 45.3469 11.2837C45.029 10.7555 44.6705 10.2524 44.3314 9.73724C44.2815 9.66169 44.2224 9.58834 44.1915 9.50458C44.0954 9.24345 44.2045 9.05842 44.4757 9.05951C45.6659 9.06335 46.8561 9.08032 48.0463 9.09017C48.3267 9.09236 48.5209 9.22867 48.662 9.46516C49.1817 10.3367 49.7057 11.2049 50.2243 12.077C51.0228 13.4193 51.8262 14.7589 52.6128 16.1078C53.2893 17.2683 53.9419 18.4431 54.6151 19.6053C54.6889 19.7323 54.8272 19.8944 54.9438 19.9015C55.0621 19.9086 55.2368 19.7712 55.3073 19.6502C55.8481 18.7261 56.3581 17.7835 56.9005 16.8599C57.5168 15.8116 58.1612 14.7802 58.7856 13.7363C59.5207 12.5073 60.2438 11.2706 60.9805 10.0422C61.1389 9.7783 61.3163 9.51991 61.5202 9.29163C61.6152 9.18488 61.7942 9.10221 61.9363 9.09948C63.0386 9.07648 64.1409 9.0721 65.2438 9.07101C65.4738 9.07101 65.566 9.20623 65.5015 9.43506C65.4678 9.5533 65.393 9.66224 65.3273 9.76899C64.4171 11.2542 63.5035 12.7372 62.5933 14.2224C61.9304 15.3047 61.2658 16.3859 60.6116 17.4742C60.0322 18.4382 59.4697 19.4126 58.8936 20.3789C58.3169 21.3456 57.749 22.3179 57.1436 23.266C56.9022 23.6443 56.8284 24.0297 56.8577 24.4573C56.8799 24.783 56.9195 25.1087 56.9206 25.4344C56.9266 27.2952 56.9249 29.1564 56.9228 31.0172C56.9222 31.5953 56.8783 31.6402 56.3054 31.6429C55.3111 31.6473 54.3167 31.6478 53.3224 31.6424C52.7544 31.6396 52.7305 31.5712 52.7723 31.0002C52.8157 30.4013 52.7973 29.798 52.8011 29.1964C52.8043 28.6128 52.8016 28.0287 52.8016 27.4452C52.8135 27.4452 52.8244 27.4452 52.8358 27.4452Z" fill="#000"></path> </svg>