<?xml version="1.0" standalone="no"?>
<!DOCTYPE svg PUBLIC "-//W3C//DTD SVG 20010904//EN"
 "http://www.w3.org/TR/2001/REC-SVG-20010904/DTD/svg10.dtd">
<svg version="1.0" xmlns="../www.w3.org/2000/svg.html"
 width="700.000000pt" height="700.000000pt" viewBox="0 0 700.000000 700.000000"
 preserveAspectRatio="xMidYMid meet">
<metadata>
Created by potrace 1.14, written by Peter Selinger 2001-2017
</metadata>
<g transform="translate(0.000000,700.000000) scale(0.100000,-0.100000)"
fill="#000000" stroke="none">
<path d="M3278 6996 c-1 -2 -39 -6 -83 -10 -117 -9 -197 -20 -355 -50 -484
-92 -971 -300 -1370 -586 -477 -342 -840 -769 -1101 -1290 -79 -159 -127 -272
-181 -429 -35 -103 -100 -337 -112 -401 -4 -26 -23 -131 -30 -165 -4 -23 -19
-121 -22 -150 -26 -237 -26 -664 1 -826 2 -13 6 -46 10 -74 11 -92 16 -119 47
-260 76 -354 225 -733 402 -1029 36 -60 66 -113 66 -117 0 -4 3 -9 8 -11 4 -2
28 -34 53 -73 25 -38 81 -115 124 -170 475 -609 1131 -1043 1879 -1241 55 -14
109 -28 120 -30 12 -2 32 -6 46 -9 88 -18 184 -35 226 -40 27 -4 60 -8 74 -11
158 -25 681 -25 842 1 13 2 46 6 73 10 28 3 59 8 70 10 11 3 31 7 45 9 72 12
111 19 165 33 33 8 69 17 79 19 41 8 206 57 296 89 204 71 399 159 564 254 49
28 93 51 97 51 5 0 9 5 9 10 0 6 4 10 10 10 14 0 220 141 320 219 355 277 661
629 886 1019 246 429 403 930 451 1437 21 221 2 738 -32 855 -2 8 -7 35 -10
60 -8 57 -53 267 -65 300 -5 14 -19 59 -31 100 -186 634 -586 1244 -1094 1665
-33 28 -62 53 -65 56 -29 34 -312 226 -455 308 -333 191 -798 359 -1125 407
-19 3 -60 9 -91 15 -31 5 -81 12 -110 15 -30 3 -67 8 -84 10 -33 6 -541 14
-547 10z m502 -1591 c30 -3 62 -8 70 -10 8 -2 36 -6 62 -10 64 -8 216 -48 308
-81 456 -163 787 -518 808 -865 6 -109 -13 -172 -71 -234 -60 -63 -124 -89
-220 -88 -67 0 -85 4 -143 33 -41 21 -84 54 -115 88 -54 59 -109 135 -109 150
0 6 -4 12 -8 14 -4 2 -46 68 -92 148 -146 251 -234 363 -355 455 -365 274
-886 163 -1195 -255 -108 -147 -212 -387 -236 -550 -3 -19 -7 -41 -10 -49 -8
-23 -18 -170 -17 -256 1 -185 18 -350 53 -510 5 -27 13 -61 16 -75 3 -14 23
-79 45 -145 160 -481 488 -811 914 -919 231 -59 525 -33 742 65 24 10 45 19
47 19 3 0 32 16 66 36 186 109 351 277 474 485 27 44 56 81 68 85 13 4 54 -7
115 -32 73 -30 95 -43 99 -61 9 -33 -65 -241 -132 -377 -240 -483 -613 -776
-1111 -870 -117 -23 -413 -23 -533 -1 -8 1 -33 6 -55 9 -302 49 -657 218 -890
425 -72 65 -205 204 -223 233 -9 15 -19 28 -23 28 -12 0 -145 212 -192 305
-79 159 -152 381 -172 525 -3 25 -9 65 -13 90 -14 97 -7 420 13 570 17 132 73
337 130 482 121 305 317 576 565 779 248 204 591 339 925 365 44 4 81 8 83 9
5 4 258 -4 312 -10z"/>
</g>
</svg>
