<svg xmlns="http://www.w3.org/2000/svg" fill="none" viewBox="6 14 83 22"> <path d="M31.1186 33.8375C33.5521 33.3565 35.0123 30.8087 35.4117 28.3514C35.499 27.7323 34.746 27.4323 34.172 27.7085C33.6623 27.9609 33.4419 28.1466 32.7762 28.6943C31.5364 29.7277 30.7605 31.104 30.4528 32.7565C30.3426 33.3089 30.765 33.9089 31.1186 33.8375ZM48.1718 34.2756C48.8008 34.4614 49.3105 33.9089 49.4666 33.4041C49.7742 32.3279 49.5998 31.1326 49.2003 30.1468C49.0212 30.3087 47.6713 31.985 47.2305 32.6041C46.9642 32.966 47.4739 34.0661 48.1718 34.2756ZM63.7602 33.4232C63.9164 33.9994 64.6464 33.9042 65.0459 33.7232C67.0386 32.8041 68.4299 30.4182 68.5401 28.1895C68.563 27.7323 67.9432 27.499 67.4565 27.6847C66.2856 28.1419 65.4867 29.0181 64.7566 30.1182C64.0679 31.1326 63.471 32.2326 63.7602 33.4232ZM81.9705 28.0323C81.9935 28.099 83.9632 26.4703 85.18 24.8893C86.3738 23.3034 86.9524 21.6081 86.9524 21.6081C86.9524 21.6081 85.6024 22.6415 84.3398 24.2226C82.8337 26.1513 81.9705 28.0323 81.9705 28.0323ZM42.3175 25.2321L42.3634 25.1655C42.896 24.4083 43.0935 23.3511 42.3864 22.9844C42.2991 22.9367 42.143 23.2368 42.0971 23.4415C41.918 24.0606 41.9639 24.6797 42.3175 25.2321ZM41.2339 26.9656C40.5497 25.656 40.2145 24.1511 40.7931 22.7748C41.3441 21.4224 43.3368 20.9176 44.0669 22.4319C44.8842 24.1321 43.7133 25.5988 43.3598 26.2894C43.2496 26.4941 44.2873 26.1989 44.6868 26.1989C45.4857 26.1513 45.9494 26.9799 45.5729 27.6228C44.3332 29.6896 42.2762 31.1564 42.0099 33.6375C41.9456 34.2566 43.447 33.9375 45.2423 32.3755C45.2883 32.3279 48.4748 28.2895 50.9084 25.194C51.4594 24.5035 53.319 25.2179 52.722 26.137C52.1894 26.9418 51.6614 27.5609 51.3262 28.0419C50.8624 28.7514 52.0563 29.2372 51.9461 31.9421C52.8552 31.2088 54.3153 30.223 54.3567 30.1515C55.8857 26.8465 57.4973 23.0129 59.0033 19.6175C59.3799 18.7698 61.4139 19.2031 60.9502 20.2842C59.9997 22.532 59.0033 24.9416 58.1172 27.1704C58.0713 27.2609 59.7334 26.1608 59.8895 26.0893C61.042 25.6988 61.5287 26.7561 61.7032 27.5133C62.1027 29.28 60.289 31.6659 59.4258 33.366C59.2054 33.7804 59.715 33.5708 59.9125 33.4327C60.5323 33.0422 61.5517 32.0564 61.57 31.966C63.0531 27.8133 67.9432 24.5273 69.8028 26.9608C69.9359 26.7561 70.1334 26.4322 70.1563 26.4084C70.5788 25.9703 72.2822 26.1084 72.0159 26.937C72.0159 26.9846 70.2436 30.5849 69.339 32.4231C69.1416 32.8374 69.362 33.9851 69.9359 33.547C70.8451 32.8803 72.172 31.4564 72.2134 31.2992C73.2557 28.2466 76.7039 22.051 81.3093 19.5032C82.0853 19.0889 83.5454 19.5937 83.0817 20.9033C81.4792 25.2988 79.592 27.2323 76.7544 29.4134C76.7039 29.4515 76.6718 29.4753 76.6351 29.4991C76.0382 29.9325 74.2933 30.9992 74.2107 31.3707C74.2107 31.4373 73.8342 32.6565 74.0316 33.2518C74.3209 34.1709 75.2025 34.0566 75.8453 33.5708C78.2375 31.7802 79.1421 29.0038 80.6711 26.4799C81.9108 24.4369 83.2607 22.6939 85.2305 21.0652C86.1397 20.308 87.0442 19.2984 88.238 19.4603C88.7706 19.527 89.0553 20.1032 88.991 20.4699C88.0819 24.3273 85.8504 26.8751 83.5454 28.8229C82.4848 29.7182 81.4195 30.4992 80.469 31.2088C80.2257 31.3945 79.6288 34.8328 82.0623 33.6423C83.2332 33.0708 84.4316 31.2802 85.1387 30.3849C85.4922 29.9277 86.1121 30.5468 85.8228 31.1659C85.0928 32.6803 84.1194 33.9423 82.7924 34.9995C81.819 35.8043 80.6022 36.1948 79.4497 35.7091C78.5635 35.3424 78.2559 34.3995 78.0125 33.5994C77.1493 34.6328 75.9555 35.5043 74.6928 35.871C72.723 36.4472 71.9287 34.9757 71.9057 33.7804C70.666 34.8138 68.2967 37.4044 67.1029 34.6757C65.753 35.4567 63.3194 37.133 61.6802 34.3328C60.5507 35.1138 59.2697 36.4901 57.984 35.6424C57.1437 35.09 56.7672 34.1042 57.1667 33.2089C57.8738 31.6231 59.2467 29.0562 59.3339 28.8943C59.513 28.5752 59.0447 28.3895 58.7784 28.6181C57.6488 29.561 56.7443 30.3182 56.6984 30.4325C56.1244 31.7421 55.0821 34.0804 54.5082 35.3424C54.1776 36.0996 52.8047 36.0758 52.4511 35.5281C51.9415 34.7471 52.6486 34.0137 52.9608 33.3041C51.4134 34.3804 50.3252 35.5757 48.6677 35.8757C47.3637 36.1281 45.9449 35.5567 45.4352 34.2709C43.8878 35.1186 42.1384 36.7044 40.4992 35.4186C39.085 34.3185 39.8151 31.5612 43.0889 28.28C43.1532 28.2133 43.1532 28.1514 43.0889 28.0943L42.5792 27.8895C41.3854 29.5896 38.7728 33.7185 37.1565 34.8423C35.4071 36.0377 34.2592 36.3567 33.4603 34.8662C31.688 36.1758 29.3462 36.4044 28.3912 34.3375L28.3682 34.3614C27.0826 35.4186 26.0908 36.2186 23.9879 35.8091C22.9685 35.6043 22.4405 34.6138 22.3303 33.628C22.1742 32.0421 22.4405 30.4373 22.6379 28.8753C21.3339 31.1945 20.0712 33.7851 18.2346 35.7615C17.904 36.0805 16.8204 35.8519 16.9306 35.2328C17.3714 32.6374 18.7443 29.0372 18.5881 26.6275C16.7285 30.804 13.9414 37.4378 8.38562 35.5091C4.49194 34.1566 5.39649 26.8323 10.8651 29.0848C11.5079 29.361 11.1314 30.5754 10.5574 30.3468C7.9035 29.2467 7.30659 33.7899 10.0019 33.9756C11.7053 34.0899 12.8808 32.966 13.4318 32.0707C17.0178 26.4037 18.1014 20.9414 22.3073 14.3742C22.8813 13.4551 24.3644 14.398 23.8777 15.3838C23.1935 16.7601 22.592 18.2983 22.0181 20.227C21.3752 22.4081 21.0217 24.4273 21.0446 26.6513C23.9511 22.1795 26.7612 17.8173 30.788 14.2171C30.9671 14.0552 31.3436 14.1028 31.5869 14.1933C32.0094 14.3314 32.0736 14.86 31.8762 15.1552C27.6519 22.0176 23.6205 29.0419 24.5756 33.2184C24.796 34.1137 25.3516 33.928 26.0357 33.8137C26.7015 33.6994 28.2718 32.2993 28.405 31.9564C29.4013 29.2229 31.4125 27.0227 34.1582 26.3084C35.0674 26.056 35.9949 26.2846 36.679 26.9513C37.0555 26.1465 38.1391 26.0322 38.6718 26.6322C38.782 26.7703 38.759 27.1132 38.6718 27.299C37.6754 29.2515 36.8122 30.9706 35.8158 32.8089C35.7515 32.947 35.903 33.247 36.1234 33.1756C37.579 32.6898 39.5488 29.5134 41.2339 26.9656ZM75.7764 28.1371C75.8223 28.1704 77.636 26.8656 78.8528 25.3941C79.8262 24.2225 81.0889 21.6986 81.02 21.6081C80.9098 21.5605 79.491 22.9177 78.21 24.4321C77.2366 25.5988 75.7764 28.1228 75.7764 28.1371Z" fill="black"></path></svg>