<svg xmlns="http://www.w3.org/2000/svg" fill="none" viewBox="0 0 207 41"> <path d="M21.9671 39.4021C16.6184 39.4098 12.8761 37.9345 9.64579 35.0477C8.04444 33.6157 6.73927 31.949 5.84071 29.9938C5.42155 29.0826 4.78403 28.3807 4.1465 27.6634C-1.30509 21.5095 -1.35529 12.0578 3.84531 5.8987C7.41947 1.66929 11.9926 -0.247597 17.4367 0.0255149C19.8989 0.148032 22.2156 0.8959 24.3867 2.10321C24.7105 2.28443 25.1095 2.38908 25.481 2.41461C30.1821 2.73622 34.1027 4.65566 37.1999 8.28269C39.6145 11.1082 40.9247 14.4213 41.1506 18.1198C41.4217 22.5738 40.1115 26.5582 37.3104 30.0219C36.4821 31.0454 35.5283 31.9158 34.4867 32.7071C34.1529 32.9598 33.8693 33.2839 33.5906 33.6004C30.2148 37.4419 25.978 39.3307 21.9671 39.4021ZM9.78885 19.1306C9.78885 19.59 9.78634 20.0469 9.79136 20.5064C9.79136 20.6289 9.81395 20.7488 9.82901 20.8714C10.3762 25.1748 12.3415 28.6385 15.7073 31.316C16.3624 31.8367 17.03 32.0026 17.7956 31.903C21.3948 31.4334 24.5724 30.0295 27.0874 27.3188C31.2639 22.8112 32.4135 17.5634 30.6164 11.657C30.5185 11.3329 30.2876 10.9985 30.0265 10.7841C25.2376 6.85331 18.7393 6.37856 13.5061 9.58188C13.1095 9.82436 12.733 10.1715 12.4645 10.5544C10.6673 13.1145 9.73866 15.9681 9.78885 19.1306ZM22.1428 2.54478C16.1742 -0.308856 8.11472 1.73055 3.91308 7.93045C-0.243388 14.0665 0.988993 21.6933 4.16658 25.4071C4.19168 25.3586 4.24188 25.3075 4.23937 25.259C4.22933 25.0446 4.21929 24.8302 4.18666 24.6209C3.72483 21.683 4.11889 18.8447 5.12036 16.0728C5.9637 13.7373 7.31405 11.7259 9.02583 9.98006C10.2181 8.7651 11.6136 7.80283 13.0894 6.96562C13.481 6.74356 13.8474 6.473 14.1963 6.18713C16.0487 4.67097 18.1068 3.56831 20.416 2.97359C20.938 2.83576 21.4626 2.71069 22.1428 2.54478ZM18.9577 33.0491C19.0405 33.1665 19.0531 33.1997 19.0756 33.2125C19.1811 33.2712 19.284 33.3324 19.3944 33.3758C22.5092 34.5652 25.6567 34.6699 28.8594 33.7459C30.2072 33.3579 31.3016 32.6892 32.1725 31.5431C34.5494 28.4138 35.7065 24.9451 35.3702 20.9658C35.1619 18.4976 34.3562 16.2693 33.0761 14.1942C32.928 13.9542 32.7348 13.7424 32.5641 13.5178C33.174 18.1377 32.3307 22.3492 29.7379 26.132C27.1225 29.9453 23.4605 32.1711 18.9577 33.0491ZM37.2527 26.987C39.7475 23.6816 40.5482 17.4409 37.9454 12.3258C35.8647 8.23419 30.3277 4.04817 27.7375 4.53059C28.5607 5.61027 29.3965 6.72314 30.2499 7.82069C30.3955 8.00702 30.6038 8.15251 30.7971 8.2929C31.924 9.11478 32.9531 10.0464 33.8316 11.1414C37.1824 15.3121 38.4348 20.0495 37.5338 25.3662C37.4484 25.8614 37.3606 26.3591 37.2527 26.987ZM8.74472 14.4647C8.56902 14.5821 8.50125 14.6025 8.47615 14.6485C6.18458 18.5946 5.70769 22.7678 7.20863 27.0764C8.15237 29.7845 7.90138 29.6135 10.9961 30.9357C11.6864 31.2317 12.4067 31.4998 13.3454 31.5457C8.67444 26.668 7.2011 21.0296 8.74472 14.4647ZM25.6793 36.0457C25.4534 36.0253 25.3179 35.9972 25.1823 35.9997C21.7914 36.0763 18.654 35.2263 15.7776 33.3835C15.5366 33.2303 15.2204 33.1844 14.9317 33.1282C13.875 32.924 12.8133 32.7479 11.7592 32.5361C11.3099 32.4467 10.8732 32.291 10.3285 32.1379C13.8499 36.6608 21.1313 38.1795 25.6793 36.0457ZM27.3384 6.17692C26.8389 5.66898 26.4624 5.25038 26.0483 4.87261C25.4333 4.31618 24.7782 3.88226 23.8696 4.06349C23.0489 4.22685 22.2055 4.27024 21.3823 4.42083C20.8828 4.51272 20.4034 4.70926 19.914 4.85985C21.1714 5.09468 22.3938 5.10999 23.5935 5.29887C24.7908 5.49031 25.9654 5.84765 27.3384 6.17692Z" fill="#000"></path> <path d="M190.249 10.0336C191.147 9.54101 191.953 8.97948 192.841 8.63234C196.451 7.21829 199.867 7.69559 202.813 10.2302C205.823 12.8209 206.844 16.231 205.991 20.1464C205.115 24.1717 201.589 27.1912 197.804 27.6353C196.463 27.7936 195.163 27.6966 193.883 27.3341C193.459 27.2142 193.173 27.2295 192.841 27.5613C190.972 29.4195 188.75 30.4864 186.115 30.7059C182.93 30.9714 180.204 29.9836 177.872 27.8063C175.706 25.7823 174.564 23.2375 174.444 20.2741C174.323 17.2469 175.269 14.5693 177.33 12.3308C179.386 10.0974 181.928 8.94885 184.918 8.81612C186.283 8.75741 187.611 9.00755 188.893 9.48486C189.34 9.65587 189.784 9.84731 190.249 10.0336ZM194.345 25.721C197.839 26.9793 202.106 25.0089 203.807 21.5503C205.662 17.7854 204.505 13.0328 200.71 10.659C197.874 8.88503 193.722 9.22706 191.91 11.1567C194.034 12.9281 195.412 15.1513 195.881 17.9284C196.353 20.7233 195.743 23.3013 194.345 25.721ZM187.847 13.1349C185.138 11.805 181.168 12.729 179.197 15.94C177.202 19.1944 177.98 23.1098 180.728 25.4351C183.525 27.8038 187.749 27.4286 189.89 25.1773C186.559 21.6524 185.854 17.645 187.847 13.1349ZM191.032 23.8398C193.394 21.0372 192.518 15.8839 189.35 13.9899C187.43 16.9508 188.354 21.8362 191.032 23.8398Z" fill="#000"></path> <path d="M121.371 24.2483C122.621 25.5934 123.457 27.1096 123.79 28.8529C124.468 32.3829 123.7 35.5173 121.145 38.1081C118.183 41.1123 113.608 41.8627 109.895 39.9509C105.96 37.9217 103.859 33.5724 104.722 29.1464C104.823 28.6308 104.762 28.3067 104.363 27.9621C102.606 26.4485 101.477 24.5112 101.003 22.2446C100.014 17.5149 101.816 13.0098 105.842 10.4446C109.813 7.91513 115.078 8.36437 118.595 11.5064C121.095 13.7398 122.289 16.5705 122.32 19.9142C122.33 21.387 121.963 22.8138 121.371 24.2483ZM120.54 25.915C116.685 30.8463 111.936 31.9184 106.356 29.5191C105.495 31.9158 106.668 36.3903 110.493 38.4424C114.197 40.4282 118.557 39.2618 120.974 35.8415C123.429 32.36 122.571 27.8983 120.54 25.915ZM118.203 21.9306C119.37 19.4599 118.349 15.3657 115.001 13.454C111.457 11.4324 107.428 12.7852 105.498 15.8813C103.618 18.8932 104.19 23.1992 106.63 24.8379C109.84 21.2262 113.731 20.3251 118.203 21.9306ZM117.523 23.5514C113.761 21.4865 109.042 23.822 107.988 25.9916C110.927 28.1254 115.791 26.8722 117.523 23.5514Z" fill="#000"></path> <path d="M150.095 3.14465C151.407 3.14465 152.567 3.14465 153.819 3.14465C153.819 5.87577 153.819 8.55329 153.819 11.3916C154.176 11.167 154.402 11.0445 154.607 10.8939C161.206 6.05955 170.475 10.0924 171.56 18.2654C172.034 21.8413 171.005 24.9426 168.57 27.4976C166.69 29.4706 164.343 30.5299 161.588 30.7035C158.43 30.9025 155.722 29.8969 153.435 27.763C151.708 26.1473 150.649 24.0952 150.255 21.729C150.135 21.0118 150.102 20.2741 150.1 19.5441C150.089 14.4341 150.095 9.32669 150.095 4.21668C150.095 3.88742 150.095 3.5556 150.095 3.14465ZM160.855 27.0228C164.68 27.1198 168.013 23.8501 168.031 19.8504C168.048 15.8686 165.059 12.5402 160.9 12.5198C156.942 12.4994 153.676 15.547 153.736 19.9781C153.792 24.0365 157.243 27.1173 160.855 27.0228Z" fill="#000"></path> <path d="M51.9508 3.15228C53.1657 3.15228 54.2926 3.15228 55.5175 3.15228C55.5175 5.87064 55.5175 8.57879 55.5175 11.4401C55.8488 11.2538 56.0546 11.167 56.2303 11.0394C59.7668 8.44096 63.5693 8.05809 67.4673 9.95201C70.9009 11.6213 72.8812 14.526 73.4033 18.3725C73.8174 21.4304 73.0544 24.2126 71.1443 26.6093C69.1339 29.1286 66.5461 30.5324 63.3008 30.7034C60.1107 30.8719 57.3949 29.8509 55.1309 27.6099C52.9824 25.4811 51.9157 22.8546 51.9182 19.8019C51.9232 14.5413 51.9408 9.28072 51.9534 4.01756C51.9508 3.74956 51.9508 3.48155 51.9508 3.15228ZM62.6683 27.0228C66.3755 27.1198 69.8843 24.039 69.8592 19.7764C69.8342 15.6772 66.7394 12.5249 62.7486 12.5121C58.2784 12.4994 55.6053 16.1315 55.5551 19.6743C55.4949 23.6229 58.8858 27.1223 62.6683 27.0228Z" fill="#000"></path> <path d="M146.769 30.3078C145.549 30.3078 144.395 30.3078 143.132 30.3078C143.132 29.5956 143.132 28.9397 143.132 28.1305C142.796 28.3424 142.6 28.4521 142.419 28.5849C140.703 29.8585 138.813 30.5426 136.667 30.706C131.25 31.1143 126.381 27.204 125.407 21.8438C124.553 17.155 126.614 12.6525 130.592 10.2915C134.606 7.91257 139.618 8.41541 143.11 11.509C145.484 13.6122 146.726 16.2897 146.799 19.4624C146.877 22.9159 146.817 26.3744 146.814 29.8305C146.814 29.9555 146.792 30.0755 146.769 30.3078ZM143.127 19.807C143.356 16.5628 140.59 12.484 135.999 12.5121C131.423 12.5427 128.908 16.3918 128.873 19.7559C128.83 23.6101 132.139 27.0738 136.039 27.0432C139.99 27.0126 143.283 23.5719 143.127 19.807Z" fill="#000"></path> <path d="M79.9091 9.0714C79.9266 9.40832 79.9567 9.70441 79.9542 10.003C79.9316 13.3059 79.8413 16.6113 79.8965 19.9142C79.9818 25.1059 85.2853 28.5338 89.9438 26.3974C92.2529 25.3382 93.666 23.4493 94.0726 20.8663C94.168 20.2664 94.2006 19.6513 94.2032 19.0438C94.2157 16.0753 94.2082 13.1043 94.2082 10.1358C94.2082 9.80395 94.2082 9.47469 94.2082 9.07906C95.4154 9.07906 96.5424 9.07906 97.7397 9.07906C97.7622 9.30112 97.8049 9.53339 97.8049 9.76567C97.8099 13.2855 97.8375 16.8053 97.7974 20.3251C97.7698 22.5279 97.0293 24.5137 95.7493 26.2877C94.0676 28.6155 91.8087 30.0576 89.0352 30.5554C82.05 31.8112 76.227 26.4612 76.2696 19.8427C76.2897 16.5986 76.2722 13.3544 76.2722 10.1077C76.2722 9.77843 76.2722 9.45172 76.2722 9.06885C77.5347 9.0714 78.6892 9.0714 79.9091 9.0714Z" fill="#000"></path> <path d="M207 7.22087C206.998 8.4052 206.109 9.29856 204.937 9.29601C203.84 9.29601 202.909 8.37968 202.879 7.27192C202.846 6.1131 203.845 5.08446 204.99 5.09978C206.169 5.11765 207.003 5.99569 207 7.22087ZM204.954 5.66898C204.109 5.66898 203.496 6.28922 203.484 7.15706C203.471 8.04531 204.136 8.79062 204.944 8.79828C205.707 8.80339 206.506 7.99936 206.518 7.21321C206.531 6.37856 205.813 5.66898 204.954 5.66898Z" fill="#000"></path> <path d="M204.866 7.79514C204.736 7.96871 204.613 8.13462 204.385 8.43836C204.179 7.58074 204.249 6.90434 204.307 6.12839C204.578 6.11308 204.834 6.05947 205.082 6.0901C205.672 6.16412 205.863 6.4551 205.727 7.02685C205.682 7.22084 205.524 7.40972 205.542 7.58839C205.559 7.76451 205.732 7.92787 205.85 8.11675C205.313 8.49707 205.24 7.84619 204.866 7.79514Z" fill="#000"></path> </svg>