<svg xmlns="http://www.w3.org/2000/svg" viewBox="0 0 198 46" fill="none">
<path d="M129.817 7.13338C131.507 7.3646 133.099 7.58288 134.717 7.80385C134.717 16.6438 134.717 25.4375 134.717 34.285C134.549 34.3228 134.367 34.3804 134.181 34.4025C133.424 34.492 132.665 34.5631 131.908 34.6553C131.483 34.707 131.2 34.5836 130.932 34.2058C128.347 30.5598 125.736 26.9315 123.135 23.2973C121.877 21.5387 120.62 19.7779 119.362 18.0182C119.313 17.9497 119.257 17.8867 119.137 17.7363C119.137 24.1106 119.137 30.3835 119.137 36.7206C117.359 37.0909 115.601 37.3749 113.852 37.6864C113.737 37.2536 113.708 5.18397 113.818 4.47955C114.456 4.60459 115.094 4.72747 115.73 4.85413C116.375 4.9824 117.019 5.11768 117.664 5.2411C117.905 5.28691 118.061 5.40225 118.203 5.61729C119.933 8.24957 121.676 10.8732 123.416 13.499C125.422 16.5253 127.428 19.551 129.435 22.5767C129.522 22.7066 129.618 22.83 129.763 22.9491C129.824 22.2927 129.814 21.6416 129.816 20.9905C129.818 20.3438 129.817 19.6976 129.817 19.0508C129.817 18.3863 129.817 17.7218 129.817 17.0572C129.817 16.3927 129.817 15.7282 129.817 15.0636C129.817 14.4169 129.817 13.7707 129.817 13.1239C129.817 12.4594 129.817 11.7948 129.817 11.1303C129.817 10.4836 129.817 9.83734 129.817 9.19059C129.817 8.53037 129.817 7.8696 129.817 7.13338Z" fill="#000"/>
<path d="M23.3331 16.9414C20.8822 16.9414 18.5232 16.9414 16.1348 16.9414C16.1112 16.8196 16.0744 16.7021 16.0674 16.5824C16.0028 15.5282 15.5075 14.8147 14.5136 14.5037C13.3985 14.1544 12.269 14.1674 11.172 14.6104C10.5982 14.8416 10.2049 15.2474 10.0505 15.8818C9.90087 16.4957 10.0852 16.9791 10.5394 17.3715C10.9952 17.7649 11.5514 17.9692 12.1178 18.1239C13.352 18.4602 14.6013 18.7437 15.8302 19.0999C17.2066 19.4993 18.4932 20.1142 19.6244 21.0111C21.129 22.2032 21.9674 23.7549 22.071 25.7092C22.1613 27.4187 21.8536 29.0189 20.9629 30.4903C20.2137 31.7277 19.1927 32.6849 17.9664 33.4195C16.2432 34.4516 14.3699 34.9992 12.3785 35.2089C10.137 35.4449 7.94687 35.2584 5.80319 34.5626C4.46579 34.1282 3.25343 33.4556 2.23822 32.4693C1.08837 31.3526 0.415666 29.9675 0.131943 28.3873C0.0817172 28.1059 0.0234766 27.8235 0.010653 27.5395C-0.0096511 27.0938 0.0053098 26.6464 0.0053098 26.1624C2.52943 26.1624 5.01026 26.1624 7.50286 26.1624C7.54614 26.4788 7.55682 26.7876 7.63537 27.0776C7.7604 27.5411 7.88115 28.017 8.09221 28.4422C8.43898 29.1413 9.09085 29.4469 9.82393 29.5455C10.7585 29.6716 11.7015 29.7303 12.6216 29.4479C13.274 29.248 13.8789 28.9526 14.3079 28.3808C14.8775 27.6209 14.9165 26.3947 13.8463 25.7798C13.3269 25.4812 12.7659 25.2387 12.1979 25.0473C10.7205 24.5493 9.21908 24.1225 7.74704 23.611C6.60146 23.2127 5.54565 22.6247 4.62288 21.812C3.51471 20.8354 2.89864 19.5979 2.68652 18.1454C2.52141 17.0142 2.59942 15.8953 2.91414 14.7958C3.30419 13.4328 4.04155 12.2918 5.09201 11.3556C6.65543 9.96242 8.50951 9.20141 10.5421 8.85863C13.2094 8.4086 15.8484 8.50777 18.4168 9.42239C20.0166 9.99206 21.3428 10.9439 22.2452 12.4362C22.763 13.2926 23.0675 14.2218 23.1963 15.2081C23.2663 15.7546 23.2845 16.3092 23.3331 16.9414Z" fill="#000"/>
<path d="M33.8101 9.23639C33.1861 12.2831 32.5727 15.2776 31.9336 18.3987C32.0971 18.2392 32.1789 18.1685 32.2499 18.0882C33.3025 16.8988 34.587 16.0828 36.152 15.8386C37.8464 15.574 39.5209 15.6721 41.0795 16.5129C42.426 17.2388 43.1233 18.4062 43.3178 19.9061C43.4936 21.2638 43.2077 22.5826 42.9379 23.8934C42.2999 26.9967 41.6245 30.0919 40.9657 33.1909C40.869 33.6453 40.7803 34.1012 40.69 34.5459C40.3138 34.6806 34.4839 34.7237 33.6552 34.5944C33.753 34.0921 33.8438 33.5898 33.9496 33.0907C34.5854 30.0973 35.2287 27.1061 35.8571 24.1111C35.9373 23.7295 36.011 23.3242 35.9704 22.9432C35.8566 21.8755 35.1513 21.4255 34.1831 21.3818C32.6485 21.3128 31.6793 21.9671 31.1567 23.3555C30.8062 24.2868 30.6016 25.2796 30.3905 26.2578C29.8166 28.9186 29.2743 31.5865 28.7181 34.2511C28.693 34.3707 28.6556 34.4882 28.6176 34.6289C26.2944 34.6289 23.9878 34.6289 21.5978 34.6289C23.3258 26.1489 25.0468 17.7061 26.7726 9.23639C29.1135 9.23639 31.4185 9.23639 33.8101 9.23639Z" fill="#000"/>
<path d="M83.8015 9.23132C86.1894 9.23132 88.48 9.23132 90.8438 9.23132C90.0146 13.3274 89.1933 17.3798 88.3726 21.4328C88.3945 21.4473 88.4159 21.4614 88.4378 21.4759C88.6927 21.2167 88.9518 20.9617 89.2013 20.6971C89.7896 20.0735 90.3678 19.4403 90.9598 18.8205C91.7255 18.019 92.5034 17.2305 93.2686 16.4286C93.4406 16.2486 93.6218 16.1634 93.875 16.1639C96.4205 16.1715 98.9655 16.1688 101.511 16.1704C101.595 16.1704 101.679 16.1887 101.879 16.2124C99.1424 18.7542 96.4104 21.1585 93.711 23.6485C95.2509 27.3015 96.778 30.9249 98.3067 34.5521C97.9033 34.6772 91.5326 34.7187 90.6948 34.6071C90.2978 33.5378 89.8928 32.4491 89.4893 31.3593C89.0929 30.2884 88.698 29.2164 88.2711 28.0588C88.0168 28.2765 87.8191 28.4409 87.6267 28.6106C86.6788 29.4466 86.6874 29.4487 86.44 30.7045C86.191 31.9689 85.9233 33.2301 85.662 34.4923C85.6556 34.5246 85.6262 34.5521 85.584 34.6195C83.3035 34.6195 80.999 34.6195 78.6133 34.6195C79.1642 31.7781 79.7594 28.9691 80.3338 26.1562C80.9103 23.3337 81.4901 20.5117 82.0687 17.6897C82.6447 14.8764 83.2212 12.063 83.8015 9.23132Z" fill="#000"/>
<path d="M61.867 34.6261C61.688 34.638 61.5326 34.6563 61.3776 34.6568C59.4193 34.659 57.4616 34.659 55.5033 34.6574C55.0198 34.6568 55.0053 34.6558 54.9086 34.1863C54.8338 33.8236 54.8007 33.4523 54.7409 33.0276C54.6329 33.1176 54.5432 33.1855 54.4609 33.2609C53.24 34.3766 51.7733 34.8859 50.1655 35.0982C48.8901 35.2664 47.6531 35.1403 46.4322 34.7733C45.7066 34.555 45.0558 34.1896 44.4959 33.6743C43.7713 33.0082 43.346 32.1609 43.2162 31.1956C43.0596 30.031 43.1179 28.8647 43.533 27.7495C44.0861 26.2653 45.1702 25.3048 46.5909 24.7055C47.9812 24.1191 49.4452 23.8443 50.9387 23.7171C52.2985 23.6017 53.6626 23.5252 55.0198 23.3829C55.4328 23.3398 55.8603 23.1932 56.2279 22.9938C57.1159 22.512 57.211 21.7623 57.0202 20.977C56.8738 20.3744 56.3556 20.1168 55.794 19.9939C55.1811 19.8603 54.5619 19.8732 53.9506 20.0214C53.0375 20.2424 52.4689 20.8304 52.1991 21.7585C50.0148 21.7585 47.837 21.7585 45.6281 21.7585C45.674 21.1683 45.8765 20.6531 46.0887 20.147C47.021 17.9222 48.7416 16.6648 51.0167 16.1059C52.0201 15.8596 53.0396 15.7297 54.074 15.7399C55.1058 15.7502 56.1402 15.7211 57.1683 15.7884C58.698 15.8882 60.2026 16.1458 61.5806 16.8863C62.645 17.4587 63.4321 18.2774 63.7222 19.4922C63.8584 20.064 63.9065 20.6391 63.8451 21.2438C63.5501 24.1369 62.8411 26.9481 62.2555 29.7841C62.0642 30.7117 61.8499 31.636 61.6998 32.5705C61.6325 32.9877 61.6795 33.4275 61.7078 33.8549C61.7233 34.0996 61.8056 34.341 61.867 34.6261ZM56.0467 26.5876C55.7021 26.705 55.4707 26.7891 55.2362 26.8635C54.3332 27.1502 53.3976 27.2402 52.4615 27.327C51.7546 27.3928 51.0995 27.5846 50.6117 28.1484C49.9614 28.9008 50.0047 30.2428 50.967 30.6804C51.8951 31.1024 53.5467 31.1024 54.4881 30.2304C55.5145 29.2796 55.8383 28.012 56.0467 26.5876Z" fill="#000"/>
<path d="M165.966 31.3991C165.279 31.4444 164.609 31.4881 163.939 31.5323C163.585 31.5554 163.231 31.57 162.878 31.6045C162.617 31.6298 162.46 31.5193 162.307 31.3097C160.845 29.301 159.374 27.2998 157.905 25.297C156.382 23.2221 154.859 21.1471 153.335 19.0732C153.285 19.0058 153.23 18.9422 153.095 18.774C153.095 23.3315 153.095 27.7698 153.095 32.2663C151.623 32.4426 150.202 32.6123 148.786 32.7821C148.663 32.4011 148.621 10.2461 148.743 9.43982C149.102 9.46838 149.465 9.49425 149.828 9.52605C150.428 9.57941 151.027 9.64516 151.628 9.68828C151.881 9.7066 152.045 9.81062 152.197 10.017C154.142 12.6687 156.097 15.3134 158.049 17.9602C159.162 19.4704 160.275 20.9816 161.388 22.4923C161.439 22.5613 161.493 22.6281 161.542 22.6901C161.579 22.6761 161.599 22.6739 161.611 22.6626C161.622 22.6524 161.631 22.6335 161.632 22.6179C161.639 22.5467 161.646 22.4751 161.646 22.4039C161.651 18.4711 161.655 14.5389 161.66 10.6061C161.66 10.59 161.673 10.5743 161.711 10.4827C163.108 10.5436 164.525 10.6848 165.918 10.8201C165.954 10.8589 165.966 10.8718 165.978 10.8853C165.989 10.8988 166.007 10.9128 166.009 10.9279C166.022 11.0518 166.043 11.1763 166.043 11.3003C166.042 17.9268 166.04 24.5533 166.035 31.1792C166.035 31.2299 166.005 31.2795 165.966 31.3991Z" fill="#000"/>
<path d="M192.964 30.1945C192.576 29.2055 192.19 28.2235 191.796 27.2189C191.65 27.206 191.512 27.1833 191.375 27.1828C189.044 27.1807 186.714 27.1807 184.383 27.1817C183.922 27.1823 183.917 27.1839 183.749 27.6442C183.465 28.417 183.192 29.1937 182.911 29.9676C182.832 30.1853 182.741 30.3988 182.639 30.6542C180.926 30.7297 179.216 30.8051 177.435 30.8838C177.536 30.6122 177.603 30.4117 177.683 30.2161C179.217 26.4541 180.751 22.6922 182.288 18.9314C183.227 16.6327 184.177 14.3378 185.106 12.0348C185.227 11.7341 185.387 11.629 185.698 11.6365C186.818 11.663 187.939 11.6586 189.058 11.6845C189.552 11.6958 190.045 11.753 190.572 11.7912C193.012 17.8998 195.451 24.0067 197.892 30.1158C197.479 30.2624 194.048 30.3104 192.964 30.1945ZM190.501 23.2463C189.614 20.919 188.76 18.6786 187.861 16.3217C186.945 18.7034 186.082 20.9503 185.199 23.2463C186.997 23.2463 188.709 23.2463 190.501 23.2463Z" fill="#000"/>
<path d="M67.4131 16.1987C69.6968 16.1987 71.9142 16.1987 74.216 16.1987C74.0451 17.0853 73.8821 17.9287 73.7191 18.7728C75.7522 16.1901 78.279 15.1655 81.5089 15.9777C81.0671 18.0926 80.6396 20.139 80.202 22.2339C79.976 22.1795 79.7756 22.1375 79.5779 22.0836C78.4302 21.7694 77.2718 21.6912 76.0995 21.9214C74.6617 22.2038 73.6849 23.0639 73.071 24.3806C72.6751 25.23 72.4378 26.1295 72.2492 27.0436C71.7427 29.4991 71.2383 31.9551 70.7323 34.4106C70.7216 34.4624 70.6992 34.5114 70.6837 34.5572C70.3129 34.6796 64.3953 34.7151 63.6611 34.5906C64.912 28.4589 66.1623 22.3299 67.4131 16.1987Z" fill="#000"/>
<path d="M170.153 10.9711C171.733 11.0407 173.221 11.1064 174.748 11.1732C174.766 11.3155 174.801 11.4513 174.801 11.5872C174.803 17.0473 174.84 22.5081 174.787 27.9677C174.761 30.5504 174.381 33.1083 173.803 35.6279C173.579 36.6051 173.303 37.5704 173.045 38.5394C172.975 38.8019 172.848 39.011 172.602 39.1759C170.695 40.4602 168.799 41.7618 166.898 43.0575C166.811 43.1168 166.72 43.1707 166.563 43.2693C166.602 43.1119 166.61 43.0154 166.648 42.9335C167.907 40.2436 168.757 37.4221 169.337 34.5107C169.714 32.6114 169.944 30.6938 170.075 28.7632C170.124 28.0308 170.149 27.2956 170.15 26.5616C170.157 21.5865 170.154 16.6108 170.154 11.6357C170.153 11.4228 170.153 11.211 170.153 10.9711Z" fill="#000"/>
<path d="M143.861 33.1571C142.511 33.3257 141.161 33.495 139.818 33.6626C139.684 33.219 139.667 9.01224 139.802 8.42639C141.143 8.53257 142.48 8.76378 143.861 8.9093C143.861 16.9818 143.861 25.0215 143.861 33.1571Z" fill="#000"/>
<path d="M106.174 0.0298077C106.381 0.0174117 106.519 0.00285978 106.658 0.00178186C107.012 -0.00145189 107.366 0.000703946 107.757 0.000703946C107.757 15.1384 107.757 30.2336 107.757 45.3988C107.504 45.3988 107.261 45.3988 107.018 45.3988C106.77 45.3988 106.522 45.3988 106.309 45.3988C106.261 45.3595 106.246 45.3492 106.234 45.3363C106.222 45.3239 106.207 45.3093 106.205 45.2948C106.193 45.1525 106.175 45.0097 106.175 44.8674C106.174 29.942 106.174 15.0172 106.174 0.0298077Z" fill="#000"/>
<path d="M195.018 14.1385C194.287 14.139 193.722 13.6033 193.696 12.8843C193.672 12.1998 194.315 11.5671 195.029 11.5725C195.752 11.5779 196.328 12.1352 196.34 12.8396C196.351 13.5785 195.782 14.1379 195.018 14.1385ZM194.537 13.6054C194.818 13.9493 195.138 13.862 195.47 13.6987C195.283 13.4653 195.102 13.2395 194.856 12.9323C194.818 13.15 194.819 13.2902 194.765 13.4017C194.722 13.4906 194.61 13.5462 194.528 13.6162C194.528 13.157 194.528 12.6973 194.528 12.2155C194.696 12.2009 194.815 12.1847 194.935 12.1826C195.041 12.1804 195.149 12.1847 195.253 12.2036C195.597 12.2661 195.724 12.5264 195.554 12.8293C195.506 12.914 195.418 12.9754 195.347 13.0509C195.431 13.1904 195.492 13.2988 195.561 13.4017C195.587 13.4411 195.633 13.468 195.669 13.5003C196.079 13.0147 196.053 12.4655 195.61 12.1028C195.192 11.7606 194.552 11.8533 194.247 12.2995C193.935 12.7582 194.063 13.3376 194.537 13.6054ZM194.793 12.7135C194.93 12.7242 195.043 12.748 195.152 12.7345C195.199 12.7286 195.268 12.6461 195.269 12.597C195.27 12.5491 195.202 12.4639 195.156 12.4575C195.012 12.4364 194.839 12.396 194.793 12.7135Z" fill="#000"/>
<path d="M100.599 32.0198C101.312 32.022 101.906 32.5901 101.92 33.2837C101.934 33.9914 101.315 34.6133 100.596 34.6144C99.8803 34.6155 99.2514 33.9844 99.2712 33.2842C99.291 32.5874 99.8889 32.0177 100.599 32.0198ZM101.232 33.9299C101.581 33.6254 101.649 33.3354 101.47 32.9194C101.304 32.5308 100.908 32.3093 100.472 32.3599C100.057 32.4079 99.7425 32.7259 99.6714 33.1694C99.6052 33.5823 99.7922 33.9676 100.151 34.1579C100.558 34.374 100.881 34.305 101.233 33.9267L101.232 33.9299Z" fill="#000"/>
<path d="M101.232 33.9264C101.054 34.0477 100.905 34.0202 100.779 33.8413C100.693 33.7195 100.598 33.6047 100.456 33.4214C100.381 33.671 100.334 33.8283 100.282 34.0019C100.048 33.761 100.013 33.3023 100.161 32.6502C100.327 32.6421 100.498 32.6297 100.669 32.6265C100.873 32.6227 101.057 32.675 101.158 32.8722C101.254 33.0587 101.179 33.2145 101.049 33.3557C101.014 33.3934 100.991 33.443 100.934 33.5335C101.027 33.6586 101.129 33.7944 101.232 33.9302C101.232 33.9302 101.232 33.9264 101.232 33.9264ZM100.832 33.1805C100.842 33.1234 100.853 33.0668 100.863 33.0097C100.74 32.8803 100.592 32.834 100.424 32.9601C100.395 32.9822 100.413 33.1369 100.426 33.1396C100.56 33.1633 100.697 33.1692 100.832 33.1805Z" fill="#000"/>
</svg>