<svg xmlns="http://www.w3.org/2000/svg" fill="none" viewBox="11 5 106 40"><path fill="#000" d="M67.9794 27.1529c-.221-.1357-.4426-.2708-.663-.4071-.6022-.3726-1.1905-.7702-1.8086-1.1149-1.9343-1.0791-3.9717-1.938-6.1082-2.5422-1.3927-.394-2.8079-.722-4.2292-1.0047-1.0388-.2065-2.1031-.2881-3.1552-.4303-1.9737-.2667-3.9615-.2173-5.9401-.1554-1.4473.0459-2.8911.2702-4.3311.4566-2.0442.2642-4.0331.7666-5.9838 1.4207-1.672.5607-3.2827 1.2589-4.8345 2.0851-1.3357.7113-2.5845 1.5488-3.7629 2.4946-1.2956 1.0404-2.3975 2.2511-3.3355 3.5987-.8749 1.2565-1.55 2.6231-1.8833 4.1177-.1585.7107-.2113 1.4482-.2617 2.1767-.0838 1.2208.0455 2.4249.4207 3.5963.3601 1.1244.7996 2.2137 1.4899 3.191.0613.0863.068.2095.1002.3155-.0237.0161-.048.0327-.0717.0488-.2349-.1881-.4978-.3512-.7006-.5684-.8657-.9262-1.8055-1.8042-2.5462-2.8202-1.1074-1.519-1.8584-3.2338-2.1383-5.0963-.1336-.8904-.1973-1.8142-.1196-2.7082.1688-1.9517.8214-3.766 1.8887-5.4326.5258-.8208 1.1214-1.5827 1.7923-2.2958 1.3617-1.4463 2.9408-2.6183 4.6347-3.66 1.7971-1.1053 3.7174-1.9374 5.7191-2.6154 1.6003-.5422 3.2335-.9583 4.8873-1.2868.9999-.1988 2.0193-.3125 3.0344-.425.8335-.0923 1.6732-.1464 2.5116-.1792 1.077-.0416 2.1571-.0833 3.2335-.0541 1.0674.0291 2.1341.1297 3.1983.2291 1.7485.1643 3.4758.4756 5.1721.9071 1.278.325 2.542.7274 3.7763 1.1893 1.1353.425 2.2427.9357 3.3252 1.4797 1.3684.6875 2.6579 1.5089 3.8461 2.4725.4917.3982.9987.781 1.4625 1.2089.3473.3209.6405.6994.9489 1.0595.1822.2131.3467.4405.5185.6613-.0285.0298-.0576.0583-.0868.0875z"></path><path fill="#000" d="M35.4157 15.0388c.1311-.0744.2507-.1137.3321-.1922.6271-.6048 1.2433-1.2208 1.8687-1.8268 1.4643-1.4202 2.9324-2.8374 4.4004-4.25401.0662-.06369.1499-.10892.2252-.16309l.0711.04464c-.0262.08334-.0395.17262-.0796.24821-.9829 1.86605-1.9695 3.73025-2.9536 5.59625-.3831.7256-.7638 1.453-1.1426 2.1803-.156.2994-.4214.4226-.7437.4607-1.4177.1691-2.8074.4738-4.1752.8643-1.108.3166-2.2123.6553-3.2948 1.047-1.3011.4702-2.5718 1.0231-3.7502 1.7481-.9805.6036-1.947 1.2309-2.8984 1.8774-.4565.3101-.887.666-1.2889 1.0434-.5701.5357-1.1007 1.1107-1.6514 1.666-.17.1714-.3818.2405-.6259.2006-1.0843-.1768-2.168-.3607-3.2542-.5274-.7455-.1143-1.4959-.1964-2.2421-.3059-.6951-.1024-1.3872-.228-2.0818-.3328-.275-.0416-.5573-.0398-.8305-.0898-.1081-.0197-.2004-.125-.2993-.1911.0929-.053.1803-.1387.2793-.1536.7151-.1083 1.4328-.2 2.1485-.3023.697-.1 1.3928-.2042 2.0885-.3107.5974-.0917 1.193-.1893 1.7898-.2834.7437-.1172 1.4869-.2345 2.2312-.3494.1663-.0256.3369-.0285.499-.0696.0832-.0208.15-.1018.2247-.1554-.0674-.0648-.1239-.1523-.204-.1922-1.383-.6809-2.7697-1.3559-4.1545-2.0327-1.2185-.5952-2.437-1.1898-3.6519-1.7916-.119-.0589-.2124-.1655-.3181-.25.0176-.0333.0352-.0661.0528-.0994 3.0812.4756 6.1617.9518 9.2428 1.4273.0231-.0202.0455-.0404.0686-.0607-.0795-.1321-.136-.2875-.2434-.3928-.354-.3494-.7346-.6738-1.091-1.0214-1.462-1.4268-2.9178-2.86-4.3792-4.288-.2416-.2357-.5057-.4488-.7486-.6833-.0746-.0726-.1129-.1815-.1675-.2732.0261-.0286.0528-.0571.0789-.0857 2.8152 1.4095 5.6304 2.819 8.445 4.2284.0237-.0184.0468-.0363.0705-.0547-.0201-.1072-.0158-.2268-.065-.3197-.8227-1.5654-1.6526-3.1278-2.4801-4.6909-.5209-.9839-1.043-1.96779-1.5603-2.95407-.051-.09762-.071-.21071-.105-.31726.0224-.01607.0449-.03214.068-.04821.142.1119.2963.2119.425.33749 1.9901 1.94635 3.9772 3.89635 5.9655 5.84505.0571.056.1069.125.1749.1637.057.0321.1572.0607.1991.0333.0528-.0339.0996-.1321.0905-.194-.0699-.4702-.1524-.9381-.2344-1.4065-.1184-.6792-.2422-1.3577-.3588-2.0375-.1839-1.0725-.3673-2.14513-.5428-3.21891-.1098-.672-.2064-1.34579-.3059-2.01899-.0098-.06547.0048-.13392.0752-.24463.0948.12202.2119.23333.2811.36844.7741 1.50472 1.5354 3.01539 2.3113 4.51889.4481.8679.918 1.725 1.3764 2.5874.1281.2411.2513.4852.377.7274.0425-.0065.0844-.0131.1269-.0196.0407-.1209.1002-.2393.1196-.3637.1329-.8655.2544-1.7327.3855-2.5982.1111-.7303.2271-1.46003.3467-2.18917.1287-.78629.2671-1.57138.3934-2.35827.0601-.37499.1002-.75355.1524-1.12973.0121-.08571.0261-.17439.0625-.25118.0291-.0619.0929-.10773.1409-.16071.0522.0619.1396.11786.1511.18631.0729.43153.1263.86664.1913 1.29996.085.56784.1718 1.13508.2616 1.70173.0917.57558.1889 1.15116.2836 1.72614.1117.68092.2258 1.36182.3339 2.04342.0947.5958.1797 1.1928.275 1.7886.0158.0976.0644.1893.0978.2839.0862-.069.207-.1208.2543-.2095.476-.8982.9405-1.8017 1.4067-2.7047.8336-1.6148 1.6672-3.23082 2.5014-4.84685.0091-.01726.02-.03512.034-.04881.0892-.08868.1791-.17618.2689-.26427.0164.11904.0613.24285.0437.35713-.156 1.03806-.312 2.07672-.4887 3.11181-.1876 1.10059-.4056 2.19639-.5925 3.29689-.1209.7101-.2101 1.425-.3115 2.1375-.0049.0369.0091.0768.0231.1809zM109.661 35.6949h-6.007c-.421 0-.537.1143-.479.5274.142.9994.412 1.9559 1.026 2.791.766 1.0446 1.743 1.7838 3.039 2.1041 1.325.3273 2.598.194 3.855-.2941.706-.2738 1.336-.6601 1.852-1.1928.38-.3928.689-.8541 1.019-1.2928.275-.3655.347-.4381.74-.2304.279.1477.559.2941.837.4429.226.1202.321.2696.172.5232-.602 1.0285-1.338 1.9345-2.333 2.6332-.801.5625-1.676.9584-2.632 1.1548-.909.1869-1.827.2756-2.766.1637-.964-.1143-1.895-.3084-2.764-.7316-1.042-.5065-1.869-1.2648-2.546-2.182-.644-.8738-1.105-1.8339-1.329-2.8946-.174-.8291-.203-1.6601-.13-2.5101.088-1.0112.386-1.9469.873-2.8219 1.028-1.8487 2.504-3.1809 4.641-3.6999.94-.228 1.886-.2541 2.853-.1797.908.0702 1.767.2708 2.562.6773.539.2756 1.044.6262 1.53.9881.891.6637 1.506 1.5499 1.976 2.5332.343.7161.528 1.4804.627 2.2631.033.2523.053.5071.061.7607.009.341-.099.4506-.458.4648-.292.0113-.586.0024-.879.0024h-5.34zm-.861-1.666c1.669 0 3.338.0006 5.006-.0006.318-.0006.391-.1018.294-.3964-.061-.1839-.12-.3691-.191-.5494-.461-1.1762-1.26-2.0595-2.403-2.6374-1.211-.6125-2.492-.8167-3.835-.5768-.934.1667-1.777.5553-2.493 1.1619-.793.672-1.315 1.5303-1.643 2.5041-.136.4047-.074.4946.35.4946 1.639.0006 3.277.0006 4.915 0zM47.6088 35.6949h-5.9753c-.5209 0-.5931.0822-.4802.5905.1239.5565.2295 1.1196.4013 1.6618.1967.6208.5859 1.1369 1.0279 1.625.6429.7107 1.417 1.2124 2.3307 1.4987.8409.2631 1.7054.2679 2.5784.1631 1.122-.1351 2.1334-.5464 2.9962-1.2392.4486-.3601.7825-.8595 1.1583-1.3041.1318-.156.2289-.3393.351-.503.1463-.1964.3345-.2303.5537-.1161.3151.1637.638.3149.9458.4905.249.1417.2441.3536.1002.5708-.2586.3905-.4978.7964-.7892 1.1619-.507.6363-1.1105 1.1749-1.8086 1.613-.898.5631-1.8633.9387-2.9264 1.0434-.5664.056-1.1389.1399-1.7035.1102-1.581-.0834-3.0715-.4566-4.3318-1.472-1.3229-1.0661-2.2245-2.4059-2.6786-4.0178-.2459-.8719-.3491-1.7767-.2593-2.6802.1506-1.5083.6697-2.8868 1.6228-4.0957.7614-.9649 1.6678-1.7518 2.8207-2.244.6855-.2929 1.3885-.5095 2.1444-.5315.4711-.0137.944-.0721 1.4133-.0524 1.7388.0726 3.2955.5946 4.5984 1.7815.7079.6452 1.3126 1.3577 1.7412 2.2023.4074.8029.6927 1.6487.7631 2.5523.0183.2339.0516.4672.0571.7018.0091.3755-.0996.4827-.4936.4886-.4851.0072-.9708.0018-1.4559.0018-1.5675-.0012-3.1345-.0012-4.7021-.0012zm-.8846-1.666c1.6678 0 3.3355.0006 5.0039-.0006.2963 0 .3819-.1226.2945-.4036-.0261-.0833-.0419-.1702-.0699-.2523-.3254-.9589-.8469-1.8041-1.6677-2.4172-1.4067-1.0506-3.0198-1.3619-4.7459-1.0827-.9671.1565-1.8177.5845-2.5402 1.247-.7212.6613-1.1978 1.4696-1.5433 2.3672-.1135.2946-.0722.5583.3558.5523 1.638-.0232 3.2754-.0095 4.9128-.0101zM59.0517 30.6266c.1439-.0964.2617-.1423.3309-.2262.9653-1.163 2.1602-1.9958 3.6658-2.3029 1.3199-.2696 2.6325-.2244 3.8747.3934 1.1735.584 1.9786 1.4958 2.4382 2.6863.2622.6803.3885 1.3958.4456 2.1315.2301 2.9558.0546 5.9141.1105 8.8711.0067.356-.122.4738-.4857.4762-.3133.0018-.6272.0006-.9404.0006-.4341 0-.5137-.0762-.5137-.4923 0-2.3499.0152-4.6998-.0085-7.0491-.0079-.8113-.0485-1.6327-.1894-2.4297-.1997-1.1315-.7297-2.1125-1.8487-2.6238-.7358-.3363-1.5257-.422-2.3556-.3297-1.142.1268-2.0885.6137-2.885 1.3732-.7984.7612-1.3284 1.6975-1.5057 2.7886-.0826.5107-.116 1.0333-.1232 1.5505-.0316 2.2464-.045 4.4933-.0656 6.7403-.003.3601-.1184.4714-.4827.4714-.3539.0006-.7079-.0018-1.0618.0006-.2763.0018-.3977-.1333-.3977-.3994.0012-4.5112.0006-9.0223.0018-13.5335 0-.2869.1227-.403.4202-.4048.3436-.0024.6878-.0006 1.0315-.0006.3794.0006.4881.109.4893.4953.0012.4857-.0024.9714.0024 1.4577.0006.0994.0292.1994.0528.3553zM33.2635 43.0863c-1.4382-.0756-2.6756-.4743-3.7198-1.3731-.1427-.1226-.2975-.2328-.4292-.3655-.2253-.228-.2137-.4393.003-.6637.2277-.2351.4444-.4809.6733-.7148.2289-.2334.3479-.2328.5962.0155.5324.5333 1.1487.9356 1.8839 1.1332 1.3836.3721 2.5972-.0607 3.3161-1.2565.4255-.7083.2835-1.7446-.3145-2.36-.5622-.5786-1.2677-.9327-1.9489-1.3333-.8141-.478-1.6562-.9226-2.4169-1.4744-.7371-.5351-1.1875-1.2999-1.3411-2.2088-.1549-.9149-.0529-1.7916.4243-2.6029.6284-1.0684 1.5743-1.6666 2.8201-1.8684 1.4504-.2345 2.6768.2553 3.8279 1.0357.2616.1773.5021.3863.7388.5952.2046.1803.201.3631.0098.5541-.2338.2334-.4742.4607-.7061.6953-.1876.1892-.3594.1916-.5653.0136-.615-.5309-1.2852-.972-2.1103-1.1255-1.2227-.2274-2.3678.3476-2.7114 1.5481-.1651.5768.0455 1.1363.4584 1.6018.4869.5488 1.1031.9321 1.7442 1.2672.9453.494 1.9027.969 2.729 1.6434.8093.6601 1.2981 1.5071 1.4152 2.5529.1573 1.4024-.3217 2.5708-1.3508 3.5184-.6794.6255-1.4996 1.0047-2.4412 1.1005-.2174.0214-.4341.053-.5847.072zM72.4796 28.3177c.1718 0 .3461.0167.5155-.0035.3521-.0417.5342.1607.6605.4297.564 1.1988 1.1183 2.4017 1.6823 3.6005.8713 1.8511 1.7473 3.6999 2.6204 5.551.0577.1227.0892.259.1566.3756.0492.0845.1281.1845.2125.2042.0528.0125.1676-.0958.2058-.1732.2684-.5411.53-1.0863.7832-1.6345.3382-.7333.6612-1.4732 1.0012-2.2059.8481-1.8291 1.7011-3.6552 2.5541-5.482.0619-.1327.1099-.2857.2113-.3833.1226-.1184.289-.2524.4462-.2655.4317-.0363.8688-.016 1.3035-.0113.2799.003.3612.1089.2568.3649-.1402.3417-.3023.675-.4596 1.0095-.8366 1.7815-1.6768 3.5606-2.511 5.3433-.731 1.5613-1.4541 3.1255-2.1832 4.6874-.4044.8648-.8063 1.7315-1.2313 2.5868-.068.1363-.2465.2988-.3782.3024-.1172.0035-.286-.175-.3527-.3107-.5701-1.1643-1.1269-2.3351-1.6793-3.5083-.8172-1.7362-1.6241-3.4773-2.4413-5.2135-.5142-1.0934-1.04-2.1821-1.5572-3.2737-.2502-.528-.4948-1.0589-.7401-1.5899-.119-.2571-.0322-.3916.2574-.3982.2216-.0053.4438-.0018.6666-.0018zM93.5848 32.7504v9.3402c0 .472-.0953.5648-.5785.5654-.3133 0-.6278-.0113-.9405.0036-.2884.0131-.3898-.1453-.4213-.3863-.0079-.0583-.0012-.1191-.0012-.1786V23.3548c0-.4762.0941-.5696.5743-.5696.2829 0 .5664-.0006.8494 0 .4025.0012.5172.1119.5178.5059.0007 2.1416.0007 4.2832.0007 6.4248-.0007 1.0119-.0007 2.0232-.0007 3.0345zM98.561 32.7504v9.3395c0 .4893-.0771.5655-.5695.5655h-.819c-.4475-.0006-.5531-.1012-.5531-.5309-.0006-2.3892 0-4.7791 0-7.1683V23.4155c0-.5547.0765-.6303.6357-.6303.2628 0 .5257-.0006.7886 0 .4019.0012.5167.1125.5167.5065.0006 2.2208 0 4.4415 0 6.6629.0006.9321.0006 1.8642.0006 2.7958zM86.667 35.4539v-6.657c0-.394.0886-.4785.4966-.4791.3333-.0006.6667-.0012 1.0006 0 .3369.0012.4444.1065.4444.4398.0006 3.6553 0 7.3111 0 10.9664 0 .8321.0006 1.6642-.0006 2.4963-.0006.3298-.1087.4333-.4505.4339-.354.0012-.7073.0018-1.0613 0-.3199-.0017-.4292-.1089-.4292-.4249v-6.7754zM11.8877 30.0034c.1536-.0994.2981-.2154.462-.2952 2.1875-1.0649 4.3773-2.1255 6.5697-3.1815.1281-.0619.2823-.072.4243-.1065-.0516.1375-.0874.2839-.1578.4119-.3503.6399-.7468 1.2589-1.0546 1.9178-.2471.5285-.6994.5684-1.1693.6393-.8324.1261-1.6641.2541-2.4965.3821-.5877.0905-1.1748.1792-1.7618.2732-.2046.0327-.4062.0851-.6108.1131-.0571.0077-.122-.0393-.1833-.0607-.0073-.0316-.0146-.0625-.0219-.0935zM46.696 12.9444c-.55.5113-1.1061 1.0166-1.6477 1.5363-.6642.6368-1.318 1.2839-1.9713 1.932-.2076.206-.4383.309-.7425.3102-.7231.0029-1.4474.0202-2.1693.0601-.3837.0208-.7637.1077-1.1468.1482-.1063.0113-.2192-.0381-.3291-.0595-.0079-.028-.0164-.056-.0243-.0846.1451-.1017.2793-.225.4372-.3023.9659-.475 1.9385-.9363 2.9057-1.4089.6563-.3208 1.3071-.6524 1.9597-.9803.8027-.4042 1.6035-.8113 2.4079-1.2125.0826-.0411.1833-.047.2756-.0697.0146.0435.0298.0869.0449.131zM89.2157 24c.051.6184-.5646 1.5095-1.5669 1.5172-1.0048.0078-1.6168-.888-1.5955-1.5261.0285-.8476.7176-1.5631 1.559-1.5631.9083.0006 1.6034.6822 1.6034 1.572zM113.643 25.6964c.028-.5107.508-1.1214 1.081-1.3476.707-.2797 1.457-.0387 1.899.5893.626.8886.421 1.0392-.239 1.7827-.388.4363-.97.6089-1.629.3351-.462-.1917-.737-.5149-.987-.8875-.086-.1286-.086-.3131-.125-.472zm1.424 1.2196c.789.106.992-.4667 1.428-.6315.022-.0084.019-.0726.031-.109.197-.5487.089-1.0029-.366-1.4071-.595-.5291-1.627-.422-1.997.2744-.546 1.0298.197 1.7649.904 1.8732zM14.6309 35.3509c.1888-.1768.3806-.3512.5658-.5315.4863-.4738.9665-.9548 1.4589-1.4226.0753-.072.2034-.0905.3066-.134.0346.0947.0813.1864.1008.2834.125.6107-.1397.9672-.7286 1.1821-.4328.1577-.8275.4143-1.2446.6154-.1244.0602-.2683.0804-.4031.1191-.0188-.0375-.0376-.0744-.0558-.1119z"></path><path fill="#000" d="M115.95 26.4482c-.082-.0905-.156-.1899-.247-.2697-.125-.1077-.251-.2547-.399-.2869-.216-.047-.262.1834-.355.3256-.047.0715-.115.1292-.173.1935-.045-.075-.125-.1488-.128-.2256-.014-.3452-.007-.6917-.005-1.0375 0-.2268.12-.347.349-.3375.238.0095.489-.0035.706.072.139.0489.306.231.322.3691.045.378.015.7648.015 1.1482-.028.0166-.057.0327-.085.0488zm-.664-1.4547c-.105.1583-.195.2386-.212.3327-.034.1839.114.2274.25.1887.106-.0304.192-.1286.286-.1965-.086-.0869-.172-.1732-.324-.3249z"></path></svg>