<svg xmlns="http://www.w3.org/2000/svg" fill="none" viewBox="39 0 50 50"> <path d="M89 50H39v-.3961c0-16.3804 0-32.7608.0007-49.141177 0-.462022 0-.462723.4501-.462723 16.3818.000701 32.7636.000701 49.1453.001402H89V50zM87.5255 1.50245H41.3152c-.1402 0-.2826.01472-.42-.00351-.3001-.03996-.4277.05539-.4003.37929.028.33653.0077.67726.0077 1.01589 0 15.06088.0014 30.12188-.0042 45.18278 0 .298.0168.4543.3975.4543 15.4009-.0105 30.8017-.0112 46.2033 0 .373 0 .434-.1129.434-.4529-.0084-15.3533-.007-30.7059-.007-46.05915-.0007-.15073-.0007-.30077-.0007-.5167z" fill="#000"></path><path d="M54.0645 25.7042h1.5376c.0056.1206.0161.244.0161.3674.0007 3.469.0098 6.9381-.0056 10.4071-.0042.9478.3695 1.6602 1.1303 2.2014 1.614 1.1491 4.5624 1.1477 6.1729-.0147.7622-.5497 1.1541-1.2851 1.152-2.2379-.007-3.4221-.0028-6.8448-.0028-10.2668v-.4494h1.5811v10.8501c0 .4669-.0322.936.0028 1.4001.0835 1.1056.5623 1.5564 1.6681 1.6223.5756.0344.5756.0344.5756.6002v.7564c-1.3196.4873-2.9049-.258-3.62-1.6728-.2686.2468-.5224.5153-.8106.7397-.8189.6359-1.776.9233-2.7913 1.0166-1.6533.1521-3.2442-.0589-4.6879-.9416-1.2494-.7642-1.9176-1.8754-1.9176-3.3611 0-3.5391-.0007-7.0782-.0007-10.6173v-.3997zM71.7076 21.6603v15.7866c0 .1402-.0007.2804.0007.4207.0119 1.107.5357 1.6552 1.64 1.7183.6058.0351.6058.0351.6058.6359v.0701c0 .7797 0 .7825-.779.7453-.2335-.0112-.4669-.0287-.6976-.0638-1.3974-.211-2.1526-1.0411-2.2998-2.5387-.0344-.3477-.0358-.6997-.0365-1.0502-.0021-5.1054.0007-10.2114-.0084-15.3168-.0007-.3141.0687-.4417.4039-.4144.3695.0295.7432.007 1.1709.007zM76.2783 21.6821h1.5405c.007.1402.0203.2741.0203.4087.0014 5.1257.0007 10.2514.0028 15.3778 0 .1977.0126.3969.0322.5939.0982.9864.5441 1.4239 1.5426 1.5192.6976.0666.6976.0666.6976.7614v.6128c-1.8777.5475-3.5787-.5707-3.7708-2.4538-.0392-.3821-.061-.7684-.0617-1.1526-.0042-5.0795-.0028-10.1582-.0028-15.2377-.0007-.1367-.0007-.2727-.0007-.4297zM47.967 21.6631c.4908 0 .9326-.0077 1.3736.0084.0645.0021.1634.1108.1795.1844.0294.1339.0077.2784.0077.4186 0 5.0703 0 10.1413.0007 15.2116 0 .1746.0028.3513.0224.5245.1234 1.0944.5785 1.5192 1.6779 1.5767.549.0288.549.0288.5483.584v.1753c.0007.7165.0007.7207-.7292.6899-.2678-.0112-.5385-.0274-.8014-.075-1.3217-.2377-2.0502-1.0138-2.2073-2.3536-.0448-.3821-.0687-.7684-.0694-1.1526-.0042-5.1292-.0028-10.2577-.0028-15.3869v-.4053z" fill="#000"></path> </svg>