<svg xmlns="http://www.w3.org/2000/svg" fill="none" viewBox="0 0 194 29"> <path fill="#000" d="M57.4843.106934c1.0864.047306 2.1721.094612 3.2578.143289.0899.004114.1867.003428.2685.036337.3135.126835.6713.220762.7497.619779.0838.427131-.1738.680801-.5037.880991-.1744.10627-.3523.20705-.5241.31675-.6515.41752-.9869 1.123-.7947 1.87304.2202.857.4989 1.70097.7845 2.53945 1.0803 3.16677 2.1742 6.32873 3.2633 9.49273.4662 1.3548.9242 2.7129 1.4081 4.0615.1376.3826.3258.7542.5398 1.0997.293.4731.7285.4998 1.0182.0233.3047-.5005.5514-1.0489.7429-1.6043.8656-2.5168 1.7032-5.0432 2.5504-7.5655.0218-.0645.0456-.1289.0702-.192.4518-1.1765.443-2.33651-.0144-3.52328-.5806-1.50694-1.0939-3.03925-1.6445-4.55716-.2665-.73427-.7354-1.2992-1.432-1.66668-.1792-.09461-.3517-.21048-.5071-.34074-.5793-.48678-.5002-1.099013.2079-1.372566.351-.135748.747-.204308 1.1239-.209107 1.6582-.021939 3.3171-.022625 4.9753 0 .3994.005485.8111.087756 1.1921.211849.7183.232417.8267.854934.2515 1.341714-.1888.15974-.4206.26738-.6298.40244-.7681.49569-1.0366 1.01537-.8145 1.90733.2693 1.08119.6196 2.14249.9597 3.20448.4655 1.45346.948 2.90072 1.436 4.34672.582 1.7235 1.1873 3.4389 1.7632 5.1646.2808.8419.5064 1.7023.7804 2.5463.154.4751.3503.9365.5397 1.3993.0593.1453.1432.2872.2434.4079.3748.4545.6965.4813 1.0502.0164.2427-.3188.4328-.6986.563-1.0805.4021-1.184.7579-2.3838 1.1436-3.5726.274-.8447.5828-1.6777.8492-2.5244.5064-1.6077.991-3.2223 1.4906-4.83204.4648-1.4994.9371-2.99606 1.4067-4.49409.0477-.15151.1145-.29892.1472-.45386.2106-.98863.0805-1.60978-.8485-2.14249-.1949-.11175-.3858-.24681-.5405-.40862-.4341-.45455-.3578-.946804.2222-1.195675.3449-.148089.7422-.239273 1.1157-.238588 1.3365.000686 2.6731.050734 4.0096.084329.09.002056.1833.013026.2685.04045.3537.11518.6966.259841.7634.686967.062.396957-.1718.675997-.4812.833687-1.2241.62252-1.7284 1.75307-2.134 2.96109-1.085 3.2367-2.1646 6.47614-3.251 9.71214-1.3256 3.9484-2.6512 7.8967-3.9884 11.8409-.182.5376-.3892 1.0757-.6577 1.5735-.4648.8597-1.1321 1.1964-1.8225.9386-.5745-.2146-.9964-.6561-1.2608-1.1964-.3204-.652-.595-1.3307-.8356-2.017-.6857-1.9526-1.3481-3.9141-2.0126-5.8742-.3217-.9482-.6162-1.9053-.9494-2.8493-.12-.3401-.2829-.6767-.488-.9722-.3176-.4566-.7327-.4793-1.0653-.035-.2542.3401-.4587.7377-.5984 1.1402-.5071 1.4623-.9678 2.9412-1.4653 4.407-.6577 1.9402-1.3236 3.8784-2.0106 5.809-.135.3798-.3449.748-.5855 1.073-.61.8227-1.5178.9077-2.2164.1741-.3346-.3517-.6154-.798-.7919-1.2519-.486-1.2498-.9065-2.525-1.3475-3.792-.6352-1.8264-1.2622-3.6556-1.8988-5.4813-.9664-2.7712-1.9335-5.5424-2.9095-8.31016-.6584-1.86619-1.3284-3.72827-2.0004-5.58966-.3196-.88579-.8506-1.60018-1.6984-2.05062-.1786-.09461-.3476-.22076-.4928-.36199-.4866-.47375-.3782-1.060622.2781-1.268357.4662-.148089.9712-.208421 1.4619-.231732.7709-.037022 1.5444-.009598 2.3166-.009598.0014-.015083.0021-.030166.0028-.045249zM164.56 20.1176c0 1.302-.009 2.6039.005 3.9052.005.5224.038 1.0476.101 1.5659.068.5635.336 1.0352.786 1.3911.289.2289.607.4847.494.8878-.111.3983-.528.4655-.88.5464-.196.0453-.406.0432-.61.0432-1.271-.0014-2.543.0007-3.814-.0206-.265-.0041-.543-.0637-.791-.1611-.434-.17-.532-.5409-.285-.9427.059-.0959.127-.1974.215-.2619.716-.519.931-1.2683.934-2.0972.009-2.9001.022-5.8008-.012-8.7009-.007-.5546-.159-1.1285-.348-1.6557-.391-1.0894-1.488-1.4775-2.424-1.3308-1.574.2469-2.651 1.1532-3.124 2.6807-.219.7076-.352 1.4686-.367 2.209-.047 2.2597-.01 4.5215-.021 6.7826-.004.8262.244 1.5214.893 2.0499.018.0144.032.033.05.0467.254.2022.527.4216.45.7836-.084.3997-.443.4785-.788.5382-.133.0233-.266.0617-.399.0631-1.295.0075-2.588.0219-3.882.0007-.33-.0055-.674-.0899-.983-.2105-.492-.192-.575-.5471-.266-.9612.081-.109.182-.2043.285-.2935.63-.5498.855-1.2628.854-2.0759-.002-2.8322.003-5.6638-.004-8.496-.001-.6417-.078-1.2758-.394-1.8531-.713-1.3006-2.365-1.7236-3.719-.9125-1.013.6067-1.734 1.5007-2.014 2.6512-.218.8995-.343 1.8387-.373 2.765-.058 1.7798-.023 3.5623-.012 5.3435.003.4079.024.8248.113 1.2204.066.3002.234.5855.395.8542.102.1707.269.3051.415.4463.26.2516.604.4758.507.9023-.106.4641-.544.5059-.913.5868-.263.0576-.541.0672-.812.0659-1.112-.0041-2.226-.0041-3.338-.0412-.329-.0109-.676-.0891-.978-.2228-.437-.1947-.476-.4998-.172-.8728.086-.1055.183-.2049.288-.2913.691-.5656.924-1.3219.923-2.1837-.002-2.8088-.004-5.6184.001-8.4273.002-.907-.247-1.6749-.943-2.3173-.823-.7603-.728-1.352.273-1.836.833-.4032 1.702-.7371 2.567-1.0696.542-.2084 1.083-.1577 1.532.2468.63.5684 1.285.565 1.999.1762 1.162-.6321 2.407-.9056 3.732-.8378 1.163.0597 2.222.3984 3.164 1.0936.127.0939.253.1906.382.2838.509.3668 1.036.4134 1.595.1097.518-.2811 1.031-.5738 1.567-.8145 1.513-.6801 3.101-.8728 4.715-.5053 1.623.3696 2.803 1.2869 3.135 3.0235.144.7555.256 1.5261.284 2.294.046 1.2773.012 2.5573.012 3.8359zM134.707 13.1288c0 3.6535-.003 7.3077.003 10.9613.001.3846.071.7692.077 1.1545.009.7.353 1.1998.877 1.6146.195.1542.392.3202.537.5183.228.3113.167.6266-.175.8042-.254.1323-.55.2338-.832.2489-.793.0411-1.592.0768-2.382.0233-.484-.0329-.973-.1913-1.43-.3709-.638-.2516-1.235-.2496-1.822.1001-1.089.6479-2.258.7946-3.512.7274-1.419-.0761-2.643-.5663-3.75-1.4151-1.159-.8885-1.902-2.0815-2.326-3.4561-.783-2.5374-.869-5.12-.173-7.6834.441-1.6277 1.233-3.125 2.591-4.1644 1.871-1.4308 3.975-1.9121 6.265-1.1195.295.1021.574.2721.831.4538.132.094.248.2702.285.4292.167.7267-.103 1.0387-.846.9962-.247-.0144-.5-.0494-.734-.1241-1.594-.5101-2.834.4038-3.606 1.5227-.526.7631-.694 1.6715-.872 2.5662-.475 2.3886-.406 4.7553.335 7.0822.348 1.0901.895 2.0355 2.016 2.5333 1.713.7603 3.61.0349 4.299-1.6564.541-1.3287.848-2.6985.854-4.1184.024-5.0926.011-10.1852.008-15.27714-.001-.99754-.209-1.90596-1.127-2.48803-.056-.03565-.095-.09804-.148-.14054-.578-.45867-.418-1.17512.167-1.45141.92-.435354 1.858-.835057 2.795-1.234759.139-.058961.312-.047306.469-.050049.759-.015768 1.171.330458 1.284 1.096958.04.26943.041.54573.041.81928.002 3.69879.001 7.39827.001 11.09779zM47.2596 28.8689c-2.303-.2448-4.4097-1.0846-6.1994-2.6128-3.1563-2.6951-4.9931-6.1786-5.9009-10.2037-.4703-2.087-.931-4.174-1.7346-6.17315-1.2752-3.1695-3.1937-5.80356-6.061-7.6958-.1888-.12478-.3715-.26533-.533-.42233-.6673-.64994-.4907-1.415069.398-1.644743.3428-.088442.7218-.118608 1.0721-.075416 1.8831.231731 3.5666.968749 5.1035 2.078039 2.9034 2.09655 4.7238 4.97468 5.9793 8.2758.6427 1.6893.9064 3.4719 1.346 5.2112.687 2.717 1.7428 5.2633 3.3928 7.5423.9017 1.2457 2.029 2.2583 3.234 3.1928.323.2502.6556.4909.9562.7658.3081.2818.5793.6143.4076 1.0771-.1718.4614-.576.6156-1.0203.6821-.1322.0192-.2699.0028-.4403.0028zM20.5196 28.9315c-1.569-.1446-2.9689-.7109-4.2727-1.5131-3.1787-1.9553-5.2636-4.806-6.61172-8.2539-.62362-1.594-1.03665-3.2408-1.38765-4.9136-.52615-2.5038-1.30585-4.92125-2.62125-7.14121-1.14501-1.93201-2.64579-3.51437-4.48394-4.78683-.296475-.205-.57932-.44358-.822634-.70891C-.242576 1.0024-.041517.356567.761352.109067 1.46472-.106896 2.16194.037079 2.83736.202993 4.60054.63629 6.15653 1.48232 7.57211 2.63069c2.43179 1.97246 4.08729 4.50094 5.22619 7.37701.4321 1.0922.6427 2.2741.9426 3.4184.3169 1.2101.599 2.4297.9344 3.6343.9412 3.378 2.7132 6.2479 5.3052 8.5947.4689.4243 1.0216.7534 1.5253 1.1408.3408.2619.6979.519.7347 1.0126.0375.5005-.0702.7487-.5357.9009-.3783.1248-.7886.1522-1.1852.2221zM34.0851 28.9081c-1.834-.1454-3.3573-.7316-4.7872-1.6194-2.8864-1.7928-4.8009-4.3782-6.1462-7.4572-.8724-1.9978-1.3645-4.0958-1.7918-6.2197-.5276-2.6218-1.5949-5.02682-2.9934-7.2886-.9487-1.53436-2.2369-2.73758-3.6818-3.78723-.3666-.26601-.7469-.52653-1.0625-.84808-.6263-.63897-.4021-1.332794.4512-1.581666.5963-.17414 1.1777-.074044 1.7434.05759 2.258.525852 4.1956 1.636516 5.8825 3.240806 2.6948 2.56481 4.2126 5.76654 5.1286 9.31248.4042 1.5638.7586 3.1434 1.2296 4.6867 1.1477 3.766 3.1208 6.967 6.4434 9.2062.2617.1762.5077.3907.7163.6273.473.5368.3094 1.2443-.3497 1.498-.291.1111-.6134.1371-.7824.1728zM115.895 20.1567c0 1.5522.004 3.1044-.002 4.6559-.003.9379.227 1.7578 1.065 2.3001.093.0604.173.1488.245.2352.31.3702.229.7576-.218.9207-.251.0919-.527.1605-.792.1632-1.407.0165-2.814.0185-4.22.0007-.262-.0034-.538-.0843-.78-.1947-.446-.2036-.521-.5608-.209-.9379.173-.2084.389-.3805.589-.5649.481-.4436.699-1.0051.701-1.6475.006-2.8528.015-5.7062-.006-8.559-.005-.7823-.213-1.5261-.677-2.1857-.362-.5155-.85-.8371-1.449-.9262-1.219-.1803-2.296.1309-3.122 1.1011-.756.8885-1.216 1.9196-1.341 3.0817-.093.8591-.175 1.7236-.185 2.5861-.017 1.5734.019 3.1475.042 4.721.011.785.262 1.4658.867 2.0005.283.2496.631.5067.488.9667-.154.493-.642.53-1.012.541-1.496.0439-2.994.0185-4.491.0157-.067 0-.134-.0198-.199-.0404-.299-.0926-.643-.1323-.744-.5067-.095-.3503.146-.5601.371-.7466.941-.7795 1.078-1.871 1.092-2.972.031-2.51.02-5.0213.005-7.532-.006-1.0332-.282-1.9498-1.105-2.68-.689-.6108-.613-1.1888.2-1.6207.859-.4559 1.755-.8556 2.667-1.1875.562-.2036 1.179-.1618 1.655.3085.631.6239 1.33.5931 2.068.2482.822-.3846 1.653-.7569 2.569-.8241 1.514-.1103 2.986-.0006 4.276.951.648.4785 1.1 1.1024 1.306 1.8634.165.6081.268 1.2485.284 1.8779.04 1.5268.013 3.0557.013 4.5832.016.0041.032.0041.049.0041zM183.187 13.5946c0 3.7434.008 7.4867-.005 11.2301-.003.8659.193 1.6166.89 2.1884.261.2146.544.4724.446.8597-.11.434-.54.434-.878.5314-.15.0432-.314.048-.471.048-1.294 0-2.587.0048-3.88-.0185-.286-.0048-.587-.0761-.853-.1858-.429-.1776-.512-.495-.247-.8797.141-.2036.333-.3722.509-.5498.383-.386.606-.8453.648-1.389.024-.2948.048-.591.048-.8872.003-6.3225.003-12.6451 0-18.96766 0-.29549-.027-.59167-.046-.88716-.034-.52174-.225-.97012-.622-1.31977-.068-.06033-.123-.13575-.194-.19197-.846-.67462-.746-1.4754.339-2.00125.733-.355822 1.48-.686279 2.237-.985884 1.106-.437409 1.803-.02331 1.995 1.159344.05.31263.08.6328.081.94886.005 3.76598.003 7.53195.003 11.29789zM192.593 14.035c0 3.6062.013 7.2117-.009 10.818-.005.8343.237 1.5165.861 2.0616.068.0596.131.1268.194.1919.578.5986.463 1.0229-.357 1.2396-.302.0802-.623.1186-.937.12-1.225.0048-2.451-.0076-3.676-.0268-.223-.0034-.45-.0487-.665-.1097-.666-.1899-.792-.6876-.302-1.1573.098-.0939.201-.1871.315-.2591.614-.3881.839-.9886.907-1.6722.021-.2036.013-.41.013-.6156 0-6.3905.002-12.7809-.005-19.17136-.001-.38256-.01-.78912-.136-1.14083-.132-.36885-.398-.69314-.63-1.02016-.088-.12478-.247-.19677-.364-.30235-.595-.53751-.584-1.16072.094-1.57139.951-.577955 1.966-1.037304 3.051-1.303316.875-.214591 1.456.213906 1.54 1.125746.06.65612.099 1.31635.101 1.97452.01 3.60692.005 7.21244.005 10.81874zM96.1283 19.0331c0 1.9402.0048 3.8804-.002 5.8207-.0034.8878.2228 1.6653.9582 2.2275.0362.0274.0682.0596.0995.0932.486.517.3742.9715-.3033 1.1532-.3033.0816-.6229.1378-.9357.1392-1.2255.0061-2.4516-.0014-3.6764-.0329-.308-.0083-.6311-.0809-.9167-.1989-.3816-.1576-.4518-.508-.1935-.835.1683-.2132.4178-.3675.5623-.5924.216-.338.4471-.6972.535-1.0791.1111-.4806.1118-.9934.1138-1.4932.0102-2.3736.0102-4.7478 0-7.1213-.0027-.5444-.0429-1.0908-.0995-1.6324-.0566-.5437-.3312-.9866-.7327-1.3493-.1009-.0905-.2208-.1611-.3142-.2584-.4375-.4573-.4055-.8893.0859-1.2704.0354-.0275.0743-.0535.1152-.0727.9828-.4566 1.9452-.9688 2.9566-1.3493.826-.3105 1.4108.0741 1.6166.9516.0927.3943.122.8111.1248 1.2177.0129 1.8936.0061 3.7879.0061 5.6822zM173.694 18.841c0 1.9402.011 3.8798-.005 5.82-.008.9701.262 1.7935 1.06 2.3941.09.0672.17.1522.239.2414.343.4449.239.8316-.283 1.0057-.212.0706-.44.1317-.662.133-1.383.0124-2.767.0185-4.151-.0034-.307-.0048-.629-.0912-.916-.2091-.413-.17-.483-.5341-.202-.8789.129-.1584.287-.2921.429-.4395.529-.5492.792-1.1964.789-1.9704-.009-2.944-.005-5.8886-.003-8.8325.001-.8282-.311-1.4946-.954-2.0205-.692-.567-.678-1.0496.022-1.5967.125-.0974.26-.1906.404-.251.836-.3496 1.665-.7205 2.517-1.0229.956-.3393 1.524.0418 1.661 1.062.042.3154.051.6369.052.955.005 1.8703.003 3.742.003 5.6137zM171.719 6.13882c-1.295.04182-2.332-1.03868-2.281-2.40644.049-1.28549.978-2.12946 2.397-2.113 1.303.01508 2.226.9804 2.219 2.32142-.008 1.29098-.986 2.21173-2.335 2.19802zM94.0584 6.13901c-1.0741.12067-2.2464-.95435-2.2266-2.33171.019-1.31086.9664-2.14111 2.3438-2.2035 1.1819-.05348 2.2062 1.13054 2.2131 2.30291.0054 1.10038-.9876 2.35639-2.3303 2.2323z"></path> </svg>