<svg xmlns="http://www.w3.org/2000/svg" fill="none" viewBox="0 0 170 39"> <path d="M18.3464 39H10.2544C9.84644 38.9928 9.47017 38.7667 9.25484 38.406L0.16097 22.6506C-0.106496 22.1648 -0.0384963 21.5539 0.328704 21.1451L1.42804 19.9906C1.59577 19.8151 1.82244 19.7141 2.06044 19.7117H11.4512C11.8184 19.7117 12.1176 20.0243 12.1176 20.4115V23.9469C12.1176 24.3317 11.7844 24.6468 11.4172 24.6468H7.7543C7.39164 24.6396 7.08564 24.9306 7.05617 25.3106C7.0539 25.4477 7.0879 25.5799 7.1559 25.6954L11.6847 33.5719C11.8298 33.8316 12.0972 33.9927 12.3851 33.9927H13.5502C13.736 33.9975 13.9174 33.9206 14.0488 33.7835C14.1803 33.644 14.2528 33.454 14.2483 33.2592V0.699882C14.2483 0.312672 14.5475 1.75245e-05 14.9147 1.75245e-05H23.4736C23.8839 -0.00238751 24.2579 0.242926 24.4392 0.630136L33.5648 20.4813C33.7666 20.9094 33.728 21.4216 33.4651 21.8113L31.7991 24.4375C31.6382 24.6756 31.3775 24.8199 31.0987 24.8224H21.8099C21.4427 24.8199 21.1458 24.5073 21.1435 24.1225V20.551C21.1458 20.1638 21.4427 19.8512 21.8099 19.8512H26.9394C27.302 19.856 27.608 19.5674 27.6398 19.1874C27.6375 19.0671 27.6148 18.9493 27.5718 18.8386L21.4427 5.49552C21.2863 5.18046 20.9803 4.97843 20.6426 4.97122H20.0419C19.4548 4.97603 18.9811 5.47387 18.9766 6.09196V38.3001C19.0106 38.685 18.7454 38.9663 18.3464 39ZM48.008 11.5057H42.0807C41.6795 11.5009 41.3554 11.1521 41.3531 10.7192V7.28726C41.3486 7.07803 41.4256 6.876 41.5616 6.72689C41.6999 6.57778 41.8858 6.49601 42.0807 6.50082H59.0036C59.4048 6.50563 59.729 6.85436 59.7312 7.28726V10.7216C59.7358 10.9309 59.6587 11.1329 59.5227 11.282C59.3844 11.4311 59.1986 11.5129 59.0036 11.5081H53.0763V34.9668C53.0604 35.3949 52.7431 35.7364 52.3464 35.7532H48.7379C48.3412 35.7364 48.0239 35.3949 48.008 34.9668V11.5057V11.5057ZM64.3235 7.28726C64.319 7.07803 64.3938 6.876 64.5275 6.72689C64.6612 6.57778 64.8448 6.49601 65.0352 6.50082H80.4554C80.8475 6.50322 81.1648 6.85436 81.1694 7.28726V10.7216C81.1739 10.9309 81.0991 11.1329 80.9654 11.282C80.8316 11.4311 80.648 11.5129 80.4576 11.5081H69.249V18.3745H78.6126C79.0002 18.3913 79.3107 18.7328 79.3243 19.1609V22.6314C79.322 23.0643 79.0047 23.4154 78.6126 23.4178H69.249V30.7483H80.4576C80.8498 30.7508 81.1671 31.1019 81.1716 31.5348V34.9668C81.1762 35.176 81.1014 35.3804 80.9676 35.5271C80.8339 35.6763 80.6503 35.758 80.4599 35.7532H65.0398C64.6476 35.7508 64.3303 35.3997 64.3258 34.9668V7.28726H64.3235ZM90.4287 7.12613C90.465 6.75816 90.7732 6.48158 91.1314 6.50082H91.766C92.0448 6.50082 92.3032 6.66196 92.4347 6.91689L101.025 26.0706H101.159L109.75 6.91689C109.884 6.67398 110.051 6.50082 110.418 6.50082H111.053C111.488 6.50082 111.722 6.7774 111.754 7.12613L116.366 34.3968C116.5 34.9523 116.164 35.3347 115.664 35.3347H112.121C111.769 35.3203 111.468 35.0654 111.384 34.7094L109.079 19.3389H108.945L102.093 35.2987C102.027 35.5416 101.792 35.7508 101.424 35.7508H100.722C100.354 35.7508 100.187 35.5416 100.053 35.2987L93.1374 19.3389H93.0036L90.7302 34.7094C90.6984 34.986 90.363 35.3347 90.0275 35.3347H86.5187C86.0178 35.3347 85.6823 34.9523 85.7843 34.3968L90.4287 7.12613ZM120.99 7.28486C120.986 7.07562 121.06 6.8736 121.196 6.72449C121.332 6.57537 121.518 6.49601 121.711 6.49841H130.753C135.488 6.49841 139.366 10.676 139.366 15.7482C139.366 20.9262 135.486 25.1398 130.784 25.1398H125.984V34.962C125.968 35.3877 125.653 35.7316 125.261 35.7484H121.711C121.312 35.7436 120.992 35.3949 120.988 34.962V7.28486H120.99ZM130.449 19.5C131.603 19.5 132.709 19.0551 133.52 18.2638C134.332 17.4726 134.785 16.3975 134.774 15.284C134.774 13.0714 132.809 11.3782 130.447 11.3782H125.585V19.5024H130.449V19.5ZM156.201 6.50082C163.871 6.50082 170 13.0305 170 21.1595C170 29.2885 163.871 35.7508 156.201 35.7508C148.53 35.7508 142.433 29.2885 142.433 21.1595C142.433 13.0305 148.53 6.50082 156.201 6.50082ZM156.201 30.8758C161.23 30.8758 165.406 26.4914 165.406 21.1619C165.406 15.8347 161.23 11.3758 156.201 11.3758C151.169 11.3758 147.027 15.8347 147.027 21.1619C147.027 26.489 151.169 30.8758 156.201 30.8758Z" fill="#000"></path> </svg>