<svg width="202" height="24" viewBox="0 0 202 24" fill="none" xmlns="../../../../www.w3.org/2000/svg.html">
<g clip-path="url(#clip0_2163_13708)">
<path d="M89.257 14.8701C88.9353 14.8701 88.632 14.8756 88.3288 14.869C87.9141 14.8598 87.8321 14.798 87.8228 14.41C87.8114 13.9373 87.8131 13.463 87.8467 12.992C87.8723 12.6307 87.9348 12.593 88.288 12.593C89.8635 12.592 91.4384 12.593 93.0139 12.598C93.5182 12.5996 93.5878 12.669 93.5948 13.1532C93.6008 13.5718 93.6024 13.9909 93.5943 14.4095C93.5861 14.8281 93.5486 14.8598 93.1133 14.8701C92.878 14.8756 92.6427 14.8762 92.4074 14.8701C92.1873 14.8647 92.0378 14.9461 91.9264 15.1494C91.6487 15.6565 91.3525 16.1532 91.0629 16.6532C90.5977 17.4549 90.0369 18.1844 89.4162 18.8697C89.3575 18.9347 89.3173 19.0161 89.2657 19.0937C89.4766 19.45 89.839 19.4735 90.1629 19.5446C91.0259 19.7331 91.8906 19.9079 92.7802 19.9309C93.1264 19.9396 93.284 20.1468 93.2916 20.5129C93.3008 20.949 93.2927 21.385 93.2878 21.8211C93.2845 22.0796 93.1666 22.2348 92.8921 22.2299C92.8019 22.2282 92.7106 22.2282 92.622 22.2135C91.0944 21.9555 89.5488 21.7883 88.0674 21.2987C88.0332 21.2872 87.9957 21.279 87.9663 21.2593C87.3767 20.8697 86.887 21.085 86.3441 21.4315C85.1338 22.2053 83.8116 22.7014 82.4019 23.0266C81.227 23.2976 80.0575 23.2829 78.9016 23.1534C77.0343 22.9446 75.3246 22.249 73.9708 20.8932C73.147 20.0686 72.5829 19.0675 72.2334 17.9232C71.9318 16.9363 71.9552 15.9499 72.0068 14.9598C72.0318 14.4827 72.203 13.9991 72.3796 13.5472C72.8486 12.3471 73.5453 11.2985 74.5485 10.4733C74.673 10.3706 74.7871 10.2504 74.8871 10.1236C75.0219 9.9531 75.0409 9.75801 74.942 9.55965C74.2534 8.1782 74.1692 6.69074 74.2974 5.20164C74.3654 4.4131 74.7121 3.671 75.1441 2.98137C75.6474 2.17753 76.3299 1.55457 77.093 1.0409C77.6853 0.641981 78.3472 0.32121 79.0749 0.211918C79.6271 0.129403 80.1819 -0.00557278 80.7346 0.000438271C83.147 0.0272148 85.6066 1.55293 86.5354 3.93003C86.8522 4.74097 86.9854 5.56503 87.006 6.42133C87.0093 6.54866 87.0049 6.67653 87.0164 6.80331C87.0587 7.26889 86.9718 7.40387 86.5218 7.43064C86.0887 7.45633 85.6523 7.4525 85.2186 7.43119C84.854 7.41316 84.798 7.32736 84.7741 6.95468C84.7469 6.53882 84.7507 6.11586 84.6746 5.7082C84.3621 4.03823 83.3475 2.9464 81.7791 2.41415C80.6661 2.03655 79.5787 2.20977 78.557 2.83164C77.8897 3.23766 77.337 3.74532 76.9783 4.4355C76.5348 5.28907 76.3419 6.18636 76.5528 7.16179C76.9022 8.77767 77.6886 10.158 78.657 11.4728C79.282 12.3215 79.9156 13.1548 80.6574 13.9007C81.1422 14.3882 81.6259 14.8805 82.1498 15.3232C83.3818 16.3636 84.6904 17.3019 86.1099 18.068C86.6816 18.3768 86.7495 18.4178 87.2196 17.8779C87.8609 17.1407 88.4641 16.3702 89.0755 15.6073C89.219 15.4253 89.3586 15.227 89.257 14.8701ZM80.2884 20.9768C80.4477 20.9615 80.7526 20.914 81.058 20.9052C82.1422 20.873 83.1448 20.5211 84.1334 20.1189C84.2518 20.0708 84.3991 19.9407 84.4127 19.8331C84.4236 19.7451 84.2719 19.6085 84.1632 19.538C82.7524 18.6194 81.3433 17.6992 80.1173 16.5308C79.2255 15.6805 78.3304 14.8324 77.5973 13.8319C77.2435 13.3493 76.8832 12.8717 76.5174 12.3985C76.2761 12.0865 76.0881 12.0619 75.8468 12.2985C75.2023 12.9308 74.7529 13.6931 74.4235 14.5264C74.0768 15.404 74.0524 16.2849 74.3779 17.1882C74.7224 18.144 75.1849 18.9926 75.9908 19.6478C77.2103 20.6391 78.6331 20.9255 80.2884 20.9768Z" fill="black"/>
<path d="M99.3879 0.365232C99.683 0.294193 99.8624 0.218235 100.044 0.21277C100.605 0.196376 101.167 0.215503 101.727 0.20348C102.101 0.19583 102.385 0.337363 102.625 0.620975C103.433 1.57509 104.25 2.52101 105.065 3.46912C106.008 4.5675 106.959 5.66042 107.896 6.76536C108.668 7.67631 109.415 8.60857 110.189 9.51788C111.093 10.5791 112.017 11.6228 112.926 12.6797C113.505 13.3524 114.068 14.0387 114.646 14.7125C114.781 14.8699 114.948 14.9994 115.141 15.1808C115.216 15.0114 115.293 14.9191 115.293 14.8267C115.283 11.9884 115.26 9.14956 115.249 6.31125C115.241 4.50849 115.246 2.70572 115.248 0.903495C115.249 0.320969 115.324 0.23135 115.889 0.212224C116.304 0.198016 116.721 0.213317 117.137 0.225339C117.422 0.233536 117.565 0.384905 117.549 0.680539C117.542 0.807318 117.549 0.935189 117.549 1.06306C117.549 8.01894 117.549 14.9748 117.549 21.9302C117.549 22.887 117.548 22.887 116.58 22.8875C116.345 22.8875 116.109 22.8908 115.873 22.8865C115.351 22.8772 115.252 22.7794 115.249 22.234C115.244 21.3416 115.232 20.4492 115.254 19.5574C115.264 19.1279 115.132 18.7815 114.859 18.4651C113.97 17.4366 113.086 16.4044 112.205 15.3705C111.476 14.5163 110.757 13.6546 110.028 12.8016C109.428 12.0994 108.817 11.4075 108.217 10.7048C107.524 9.8922 106.84 9.07087 106.147 8.2572C105.548 7.55336 104.941 6.85662 104.343 6.15333C103.978 5.726 103.627 5.28774 103.261 4.86205C103.137 4.71723 102.986 4.59592 102.75 4.37023C102.708 4.68499 102.663 4.86806 102.662 5.05167C102.655 6.08939 102.659 7.12767 102.659 8.16539C102.659 12.8087 102.659 17.4519 102.659 22.0952C102.659 22.8859 102.658 22.8859 101.877 22.8875C101.587 22.8881 101.298 22.8919 101.008 22.8865C100.484 22.8766 100.437 22.8247 100.428 22.275C100.425 22.1291 100.427 21.9837 100.427 21.8378C100.427 15.3737 100.419 8.90967 100.44 2.4456C100.442 1.81171 100.282 1.31498 99.8249 0.895298C99.6939 0.775623 99.5955 0.620975 99.3879 0.365232Z" fill="black"/>
<path d="M154.048 11.5038C154.048 8.02452 154.048 4.54576 154.048 1.06646C154.048 0.939132 154.054 0.811261 154.048 0.683936C154.033 0.386115 154.19 0.251686 154.467 0.226003C154.539 0.219445 154.611 0.20797 154.683 0.20797C156.258 0.218899 157.839 0.15387 159.407 0.263709C161.323 0.398138 163.098 1.02711 164.72 2.10692C165.823 2.84136 166.773 3.73099 167.542 4.7873C168.299 5.82721 168.892 6.97095 169.276 8.22125C169.649 9.43329 169.789 10.671 169.777 11.9241C169.766 13.0705 169.537 14.1831 169.143 15.2711C168.762 16.3241 168.25 17.2974 167.598 18.1936C166.893 19.1635 166.085 20.0341 165.083 20.7204C164.258 21.286 163.392 21.7866 162.472 22.1418C161.69 22.4445 160.837 22.5915 160.003 22.727C158.206 23.0188 156.39 22.8511 154.582 22.8817C154.151 22.8888 154.077 22.7991 154.05 22.3767C154.041 22.2314 154.048 22.0855 154.048 21.9396C154.048 18.4619 154.048 14.9831 154.048 11.5038ZM156.31 11.5525C156.31 13.9558 156.31 16.3597 156.31 18.763C156.31 19.2182 156.301 19.6739 156.313 20.1286C156.324 20.4969 156.439 20.621 156.804 20.6379C157.202 20.6565 157.602 20.6614 157.999 20.6401C158.701 20.6029 159.423 20.6308 160.098 20.4696C161.005 20.2532 161.899 19.9647 162.735 19.5056C164.722 18.4133 166.118 16.8067 166.927 14.6984C167.177 14.0471 167.292 13.3388 167.429 12.6487C167.694 11.3066 167.415 10.0016 167.026 8.73328C166.65 7.50703 165.982 6.42176 165.11 5.47912C164.086 4.37254 162.906 3.49 161.45 3.043C160.71 2.81567 159.967 2.58889 159.184 2.55501C158.409 2.52168 157.634 2.47195 156.858 2.45665C156.464 2.449 156.343 2.58944 156.312 2.97633C156.301 3.12114 156.309 3.26759 156.309 3.41295C156.31 6.12612 156.31 8.83929 156.31 11.5525Z" fill="black"/>
<path d="M18.1458 8.20983C18.1458 5.84312 18.1458 3.47586 18.1458 1.10914C18.1458 0.963238 18.148 0.81788 18.148 0.671975C18.148 0.383991 18.2964 0.221146 18.5763 0.217868C19.0643 0.211857 19.5539 0.208578 20.0403 0.241365C20.4175 0.266502 20.4702 0.356668 20.4696 0.717878C20.4615 5.43273 20.4436 10.1481 20.4528 14.863C20.4561 16.4625 20.9865 17.8614 22.0853 19.0636C23.0385 20.1063 24.2243 20.6888 25.5536 20.9248C26.7199 21.132 27.8796 20.9522 28.9844 20.4248C30.061 19.9112 30.9218 19.1838 31.5799 18.1936C31.9462 17.6417 32.1603 17.0417 32.3288 16.3985C32.5929 15.3914 32.5277 14.3788 32.5293 13.3651C32.5364 9.26887 32.5321 5.17207 32.5321 1.07581C32.5321 0.929904 32.5332 0.784546 32.5342 0.638641C32.5359 0.397653 32.6685 0.249562 32.894 0.241365C33.3989 0.223332 33.9054 0.221693 34.4108 0.236994C34.6651 0.244644 34.7983 0.407489 34.7934 0.671429C34.7912 0.798754 34.7939 0.926079 34.7939 1.05395C34.7939 5.69667 34.795 10.3394 34.7934 14.9821C34.7928 16.7827 34.2706 18.4396 33.213 19.8702C32.3908 20.9822 31.3381 21.8757 30.0414 22.4407C28.8866 22.944 27.697 23.2828 26.4335 23.2806C25.2623 23.2784 24.1559 22.9604 23.0809 22.5123C21.4511 21.8325 20.2273 20.6702 19.3262 19.1816C18.9567 18.5712 18.7377 17.8609 18.5056 17.1772C18.1507 16.1313 18.1257 15.0417 18.1388 13.9449C18.1627 12.034 18.1458 10.1219 18.1458 8.20983Z" fill="black"/>
<path d="M189.916 11.5481C189.916 8.19663 189.916 4.84519 189.914 1.49376C189.914 1.22108 189.892 0.948392 189.884 0.675709C189.877 0.419966 189.982 0.254935 190.255 0.237995C190.435 0.226519 190.616 0.20794 190.796 0.20794C194.256 0.2063 197.716 0.206847 201.176 0.206847C201.212 0.206847 201.248 0.2063 201.284 0.206847C201.923 0.216137 201.957 0.250564 201.959 0.889375C201.96 1.14457 201.95 1.39977 201.961 1.65442C201.994 2.37902 201.82 2.42438 201.179 2.41509C200.128 2.39924 199.078 2.4129 198.027 2.41017C196.325 2.4058 194.623 2.39815 192.921 2.39104C192.31 2.38831 192.219 2.46973 192.218 3.06975C192.216 5.29165 192.217 7.5141 192.217 9.736C192.217 9.82726 192.215 9.91852 192.222 10.0092C192.242 10.2644 192.364 10.4142 192.636 10.4087C192.762 10.406 192.89 10.4092 193.016 10.4092C195.371 10.4092 197.726 10.4087 200.081 10.4098C200.726 10.4103 200.797 10.4819 200.803 11.1267C200.806 11.4366 200.811 11.7464 200.802 12.0557C200.786 12.5902 200.693 12.682 200.151 12.6825C197.796 12.6847 195.442 12.6836 193.087 12.6836C192.942 12.6836 192.796 12.6743 192.653 12.6918C192.326 12.7306 192.208 12.8585 192.208 13.1891C192.209 15.4837 192.211 17.7788 192.221 20.0734C192.223 20.5646 192.314 20.6411 192.859 20.6417C195.54 20.645 198.221 20.6433 200.902 20.6433C201.01 20.6433 201.119 20.6433 201.228 20.6433C201.944 20.6455 201.958 20.6592 201.96 21.3778C201.961 21.7056 201.967 22.0335 201.958 22.3614C201.946 22.8018 201.876 22.8685 201.454 22.8855C201.364 22.8893 201.273 22.8865 201.183 22.8865C197.705 22.8865 194.227 22.8865 190.749 22.8865C190.677 22.8865 190.604 22.8876 190.532 22.886C189.962 22.8756 189.917 22.8341 189.917 22.2565C189.915 18.6881 189.916 15.1181 189.916 11.5481Z" fill="black"/>
<path d="M137.745 11.4923C137.745 8.17696 137.746 4.86213 137.743 1.54676C137.743 1.25605 137.724 0.965332 137.711 0.674616C137.7 0.412316 137.808 0.257668 138.081 0.242913C138.279 0.231984 138.478 0.208486 138.677 0.208486C142.028 0.2063 145.379 0.206847 148.731 0.206847C148.767 0.206847 148.803 0.2063 148.839 0.206847C149.685 0.21723 149.689 0.223241 149.682 1.04457C149.679 1.33583 149.686 1.62709 149.698 1.91781C149.709 2.15224 149.63 2.30962 149.382 2.33913C149.15 2.36645 148.917 2.40689 148.684 2.40744C146.058 2.41236 143.431 2.41072 140.804 2.41072C140.659 2.41072 140.514 2.41618 140.37 2.41126C140.14 2.40416 140.043 2.53968 140.018 2.74187C140.002 2.86756 140.007 2.99652 140.007 3.12385C140.007 5.30968 140.007 7.49552 140.007 9.68136C140.007 9.79065 140.007 9.89994 140.011 10.0092C140.022 10.2704 140.147 10.4147 140.419 10.4092C140.546 10.4065 140.673 10.4098 140.799 10.4098C143.154 10.4098 145.51 10.4092 147.864 10.4103C148.497 10.4109 148.622 10.5661 148.557 11.1869C148.531 11.4355 148.554 11.6923 148.579 11.9426C148.633 12.4874 148.475 12.6825 147.935 12.6831C145.562 12.6852 143.189 12.6842 140.816 12.6842C140.671 12.6842 140.524 12.676 140.382 12.6934C140.158 12.7202 140.017 12.8432 140.011 13.0847C140.008 13.194 140.008 13.3033 140.008 13.4126C140.008 15.5804 140.008 17.7476 140.008 19.9154C140.009 20.6204 140.032 20.6439 140.752 20.6439C143.397 20.645 146.041 20.6444 148.686 20.6444C148.813 20.6444 148.94 20.6428 149.066 20.645C149.635 20.6554 149.677 20.6969 149.681 21.275C149.683 21.6576 149.689 22.0401 149.678 22.4226C149.669 22.7909 149.597 22.857 149.227 22.8844C149.119 22.8926 149.01 22.8871 148.901 22.8871C145.46 22.8871 142.018 22.8871 138.576 22.8871C138.558 22.8871 138.539 22.8871 138.521 22.8871C137.743 22.8833 137.702 22.8368 137.741 22.0384C137.75 21.875 137.745 21.7106 137.745 21.5466C137.745 18.1957 137.745 14.8443 137.745 11.4923Z" fill="black"/>
<path d="M121.727 11.5112C121.727 8.01496 121.726 4.51871 121.727 1.02247C121.727 0.263982 121.777 0.20879 122.518 0.208243C125.995 0.205511 129.472 0.20715 132.949 0.20715C133.021 0.20715 133.094 0.204965 133.167 0.209336C133.652 0.241031 133.714 0.31371 133.707 0.808256C133.703 1.15416 133.71 1.50007 133.709 1.84598C133.709 2.26676 133.633 2.35692 133.22 2.40446C133.095 2.41867 132.967 2.41102 132.84 2.41102C130.305 2.41102 127.77 2.41266 125.234 2.40884C125.037 2.40829 124.841 2.37277 124.644 2.35747C124.212 2.32468 124.031 2.47222 124.031 2.90447C124.025 5.23512 124.025 7.56632 124.031 9.89697C124.032 10.3489 124.101 10.4079 124.593 10.4085C126.857 10.4117 129.121 10.4101 131.384 10.4101C131.565 10.4101 131.747 10.4079 131.928 10.4106C132.494 10.4194 132.539 10.4653 132.544 11.0418C132.547 11.3511 132.546 11.6609 132.544 11.9702C132.541 12.6637 132.523 12.6834 131.849 12.6839C129.694 12.685 127.539 12.6845 125.384 12.6845C125.095 12.6845 124.805 12.6741 124.515 12.6883C124.11 12.708 124.021 12.8134 124.021 13.2298C124.024 15.4512 124.026 17.6731 124.028 19.8944C124.028 20.0218 124.03 20.1491 124.032 20.277C124.036 20.5005 124.173 20.6076 124.371 20.6333C124.531 20.654 124.696 20.6447 124.859 20.6447C127.503 20.6453 130.147 20.6453 132.791 20.6453C132.936 20.6453 133.081 20.6398 133.226 20.648C133.594 20.6693 133.685 20.7425 133.697 21.0972C133.713 21.5519 133.713 22.0081 133.695 22.4628C133.683 22.7868 133.59 22.8601 133.254 22.8852C133.128 22.8945 133.001 22.8885 132.874 22.8885C129.433 22.8885 125.992 22.8885 122.551 22.8885C122.425 22.8885 122.298 22.8863 122.171 22.8869C121.905 22.889 121.77 22.753 121.756 22.4907C121.745 22.2912 121.728 22.0912 121.728 21.8917C121.727 18.431 121.727 14.9708 121.727 11.5112Z" fill="black"/>
<path d="M44.5212 0.206847C46.2412 0.206847 47.9612 0.206847 49.6813 0.207393C49.8258 0.207393 49.9709 0.209033 50.1155 0.21723C50.3524 0.230891 50.4801 0.356577 50.4807 0.599205C50.4818 1.07244 50.4839 1.54567 50.4785 2.01891C50.4758 2.29214 50.3111 2.40471 50.0573 2.40853C49.8041 2.41236 49.5503 2.41072 49.297 2.41072C47.8846 2.41072 46.4727 2.4058 45.0603 2.41236C43.8479 2.41782 42.636 2.43476 41.4235 2.45115C40.8632 2.45881 40.773 2.55334 40.7725 3.13423C40.7703 5.35504 40.7703 7.5764 40.7725 9.79721C40.773 10.3655 40.8181 10.4087 41.4002 10.4092C43.7538 10.4114 46.1075 10.4103 48.4612 10.4103C48.5878 10.4103 48.715 10.4032 48.8411 10.4125C49.2068 10.4404 49.3525 10.5972 49.3563 10.9688C49.3595 11.3459 49.3595 11.7235 49.3546 12.1005C49.3487 12.541 49.1927 12.6825 48.7036 12.6831C46.3499 12.6852 43.9962 12.6836 41.6425 12.6842C41.4795 12.6842 41.3143 12.6732 41.1545 12.6962C40.835 12.7426 40.7333 12.888 40.7426 13.2159C40.7562 13.7066 40.7698 14.1967 40.7703 14.6875C40.773 17.1088 40.7714 19.5302 40.7714 21.9516C40.7714 22.0975 40.7812 22.2439 40.7665 22.3882C40.7295 22.7488 40.6111 22.8712 40.2513 22.8822C39.8171 22.8958 39.3818 22.8964 38.9481 22.8816C38.5438 22.8674 38.4074 22.7068 38.4085 22.2964C38.4291 15.4536 38.4503 8.61084 38.4677 1.76753C38.4688 1.42381 38.434 1.08009 38.409 0.736912C38.384 0.40084 38.4715 0.277887 38.8199 0.228705C38.9981 0.203568 39.1807 0.206847 39.3617 0.206847C41.0812 0.2063 42.8012 0.206847 44.5212 0.206847Z" fill="black"/>
<path d="M62.6194 12.6356C62.6194 15.7679 62.6194 18.9002 62.6194 22.032C62.6194 22.1779 62.6292 22.3249 62.6123 22.4686C62.5748 22.7965 62.496 22.8757 62.164 22.8834C61.6934 22.8943 61.2222 22.8839 60.7516 22.8861C60.4668 22.8878 60.3065 22.7648 60.3097 22.4648C60.3125 22.2129 60.3179 21.961 60.3179 21.709C60.3184 15.5903 60.3184 9.47163 60.3184 3.35293C60.3184 3.29828 60.3195 3.24364 60.3179 3.18899C60.2989 2.58734 60.1706 2.45291 59.5717 2.45127C58.0321 2.4469 56.4931 2.44963 54.9535 2.44963C54.8269 2.44963 54.6997 2.45291 54.5731 2.44854C54.1247 2.43378 54.0128 2.30537 54.0204 1.8447C54.0264 1.48185 54.0236 1.119 54.0204 0.756155C54.0166 0.38183 54.097 0.280188 54.4834 0.227182C54.6437 0.205324 54.8084 0.207509 54.9709 0.207509C59.281 0.206416 63.5911 0.206416 67.9017 0.206963C68.824 0.206963 68.8234 0.209149 68.8158 1.13376C68.8142 1.33376 68.8153 1.53431 68.8262 1.73432C68.8604 2.35182 68.7832 2.4469 68.1843 2.44854C66.7355 2.45291 65.2867 2.44963 63.8378 2.45018C63.5661 2.45018 63.2944 2.45236 63.0226 2.45236C62.7542 2.45236 62.6248 2.59226 62.621 2.85674C62.6189 3.00265 62.6194 3.14801 62.6194 3.29391C62.6194 6.40764 62.6194 9.52191 62.6194 12.6356Z" fill="black"/>
<path d="M0.00292219 2.44963C0.00292219 1.74743 -0.00903372 1.13321 0.0154215 0.520079C0.0186822 0.420623 0.168675 0.282916 0.280082 0.242478C0.42627 0.189471 0.600718 0.208051 0.763209 0.208051C5.18309 0.206411 9.60297 0.206411 14.0229 0.207504C14.8321 0.207504 14.8342 0.212969 14.8353 1.03047C14.8359 1.3037 14.8386 1.57693 14.8342 1.85016C14.8255 2.3999 14.7837 2.44744 14.2473 2.44853C12.6713 2.45236 11.0953 2.44963 9.51982 2.45017C9.37472 2.45017 9.22908 2.44198 9.08506 2.454C8.66009 2.48952 8.54705 2.60865 8.53238 3.02614C8.52748 3.1715 8.53129 3.3174 8.53129 3.46331C8.53129 9.61972 8.53129 15.7761 8.53129 21.932C8.53129 22.8872 8.53075 22.8872 7.56884 22.8872C7.27918 22.8872 6.98898 22.8823 6.69932 22.8861C6.47976 22.8888 6.35749 22.7872 6.3401 22.5686C6.32271 22.3511 6.30097 22.1336 6.30097 21.9156C6.29879 15.8324 6.29879 9.74868 6.30097 3.6655C6.30097 3.44746 6.33303 3.22997 6.3314 3.01193C6.32868 2.64034 6.18576 2.48952 5.81512 2.45454C5.68959 2.44252 5.56188 2.45017 5.43471 2.45017C3.8587 2.45017 2.2827 2.45017 0.707234 2.45017C0.509961 2.44963 0.313232 2.44963 0.00292219 2.44963Z" fill="black"/>
<path d="M173.613 11.5609C173.613 8.06469 173.613 4.56899 173.613 1.07274C173.613 0.945416 173.619 0.817545 173.612 0.69022C173.596 0.396225 173.747 0.230101 174.023 0.223544C174.528 0.211521 175.035 0.226276 175.541 0.240484C175.812 0.248134 175.919 0.417537 175.913 0.675465C175.911 0.766724 175.914 0.857436 175.914 0.948695C175.914 7.30347 175.913 13.6582 175.912 20.013C175.912 20.5753 175.976 20.6425 176.593 20.6431C179.309 20.6453 182.025 20.6442 184.742 20.6442C185.563 20.6442 185.586 20.6682 185.588 21.5059C185.588 21.8152 185.6 22.1256 185.581 22.4344C185.559 22.7923 185.472 22.8634 185.107 22.8852C184.999 22.8918 184.889 22.8874 184.781 22.8874C181.322 22.8874 177.864 22.8874 174.405 22.8874C174.278 22.8874 174.151 22.8836 174.024 22.8863C173.751 22.8923 173.63 22.7415 173.617 22.4857C173.609 22.3404 173.613 22.1945 173.613 22.0491C173.613 18.5529 173.613 15.0572 173.613 11.5609Z" fill="black"/>
</g>
<defs>
<clipPath id="clip0_2163_13708">
<rect width="201.966" height="23.2814" fill="white"/>
</clipPath>
</defs>
</svg>
