<svg width="203" height="28" viewBox="0 0 203 28" fill="none" xmlns="../../../../www.w3.org/2000/svg.html">
<g clip-path="url(#clip0_803_4608)">
<path d="M1 22.8843C1 15.4618 1 8.03935 1 0.61688C1.67224 0.61688 2.34448 0.61688 3.01672 0.61688C3.00972 6.949 3.00972 13.2811 3.00972 19.6132C3.00972 20.7578 3.2338 20.9745 4.43823 20.9745C10.6214 20.9745 16.8046 20.9745 22.9878 20.9745C23.2399 20.9745 23.499 20.9948 23.7441 20.9406C24.3603 20.812 24.7455 20.4395 24.7105 19.8029C24.6755 19.2069 24.3043 18.8683 23.7021 18.7938C23.429 18.7599 23.1419 18.7735 22.8618 18.7735C17.3788 18.7735 11.8889 18.7735 6.40593 18.7735C6.07681 18.7735 5.74769 18.7735 5.31354 18.7735C5.31354 18.401 5.31354 18.1098 5.31354 17.8186C5.31354 12.7597 5.31354 7.69396 5.32054 2.63503C5.32054 1.9578 5.35555 1.28734 5.37656 0.610107C6.0418 0.61688 6.71404 0.61688 7.38628 0.61688C7.36527 0.887773 7.31626 1.15189 7.31626 1.42279C7.30925 6.08215 7.30925 10.7415 7.31626 15.4009C7.31626 16.6605 7.51933 16.8569 8.82879 16.8569C13.7305 16.8569 18.6323 16.8501 23.534 16.8637C25.3687 16.8705 26.7132 18.1437 26.7342 19.8367C26.7552 21.5163 25.4177 22.8369 23.6041 22.8978C22.7918 22.9249 21.9795 22.9114 21.1672 22.9114C14.4448 22.9046 7.7224 22.8911 1 22.8843Z" fill="black"/>
<path d="M125.974 13.2947C129.531 15.4348 128.005 19.6946 125.68 21.0964C124.433 21.8482 123.075 22.2681 121.639 22.3087C118.901 22.3764 116.163 22.329 113.32 22.329C114.133 16.6335 114.952 10.9447 115.785 5.08667C118.747 5.18148 121.688 5.16117 124.594 5.41851C126.401 5.58105 127.935 6.49531 128.313 8.42543C128.691 10.3623 128.012 11.9403 126.275 13.0442C126.184 13.0983 126.114 13.1796 125.974 13.2947ZM119.581 19.6269C119.588 19.6743 119.595 19.7217 119.602 19.7623C120.757 19.593 121.94 19.5185 123.054 19.2205C124.37 18.8684 125.028 17.8186 124.916 16.6538C124.825 15.6786 124.069 15.0284 122.627 14.9133C121.093 14.7914 119.553 14.805 118.012 14.805C117.837 14.805 117.529 15.0759 117.501 15.2587C117.298 16.3761 117.144 17.5071 116.997 18.6313C116.913 19.2747 117.235 19.6065 117.9 19.6201C118.46 19.6336 119.02 19.6269 119.581 19.6269ZM117.921 12.2112C119.686 12.1231 121.324 12.0554 122.956 11.9403C123.327 11.9132 123.712 11.7303 124.048 11.5542C124.881 11.114 125.323 10.2878 125.19 9.46836C125.043 8.56087 124.314 8.19517 123.523 8.12067C122.108 7.992 120.68 7.95136 119.265 7.97845C118.985 7.98523 118.537 8.41188 118.474 8.70309C118.229 9.77989 118.117 10.8838 117.921 12.2112Z" fill="black"/>
<path d="M197.469 15.6378C198.856 17.8456 200.249 20.0534 201.72 22.3831C200.431 22.3831 199.297 22.4101 198.163 22.356C197.945 22.3424 197.686 22.0309 197.546 21.8006C196.433 19.9857 195.334 18.1571 194.262 16.3218C194.024 15.9223 193.772 15.7259 193.275 15.7597C192.441 15.8139 191.349 15.5091 190.838 15.9155C190.348 16.3083 190.439 17.4054 190.306 18.1978C190.187 18.8885 190.117 19.5929 190.019 20.2904C189.921 20.9609 189.809 21.6246 189.704 22.3356C188.653 22.3356 187.638 22.3356 186.524 22.3356C187.344 16.6198 188.156 10.9446 188.961 5.31679C189.066 5.25584 189.115 5.20166 189.157 5.20166C192.091 5.23552 195.039 5.15425 197.959 5.34388C200.438 5.50641 201.951 6.77284 202.392 8.58105C202.91 10.7076 201.965 13.1862 200.095 14.3782C199.311 14.8793 198.408 15.1976 197.469 15.6378ZM191.062 12.9966C193.135 12.8679 195.102 12.7799 197.056 12.597C197.518 12.5564 197.994 12.2381 198.373 11.9469C199.143 11.3509 199.353 10.5112 199.15 9.61045C198.968 8.79099 198.275 8.47269 197.518 8.26952C197.196 8.18148 196.86 8.11376 196.531 8.10699C195.221 8.0799 193.905 8.08667 192.596 8.05958C191.958 8.04604 191.692 8.39143 191.615 8.93999C191.447 10.1929 191.279 11.4525 191.062 12.9966Z" fill="black"/>
<path d="M95.5205 22.349C96.3398 16.6264 97.1521 10.9512 97.9644 5.23535C102.439 5.23535 106.872 5.23535 111.402 5.23535C111.262 6.18348 111.129 7.10451 110.982 8.0865C109.694 8.0865 108.468 8.0865 107.243 8.0865C105.422 8.0865 103.601 8.10005 101.788 8.07973C101.08 8.07296 100.688 8.30322 100.611 9.02785C100.506 9.9963 100.338 10.958 100.184 12.0348C103.153 12.0348 106.073 12.0348 109.091 12.0348C108.951 13.0574 108.825 13.9581 108.685 14.9401C105.716 14.9401 102.789 14.9401 99.764 14.9401C99.589 16.2404 99.3789 17.4594 99.2738 18.692C99.2178 19.3827 99.785 19.4843 100.373 19.4776C103.118 19.4708 105.856 19.4708 108.601 19.4708C108.902 19.4708 109.21 19.4708 109.631 19.4708C109.498 20.4731 109.371 21.3941 109.245 22.3423C104.659 22.349 100.142 22.349 95.5205 22.349Z" fill="black"/>
<path d="M173.381 12.0551C176.392 12.0551 179.27 12.0551 182.274 12.0551C182.141 13.0574 182.015 13.9717 181.875 14.9672C178.885 14.9672 175.951 14.9672 172.96 14.9672C172.778 16.2404 172.568 17.4323 172.449 18.6378C172.386 19.3082 172.883 19.4843 173.5 19.4843C176.273 19.4776 179.039 19.4776 181.812 19.4776C182.113 19.4776 182.421 19.4776 182.848 19.4776C182.708 20.4731 182.575 21.3941 182.442 22.3422C177.862 22.3422 173.339 22.3422 168.71 22.3422C169.529 16.6264 170.335 10.958 171.154 5.23535C175.614 5.23535 180.04 5.23535 184.578 5.23535C184.445 6.18348 184.312 7.10451 184.171 8.07973C182.176 8.07973 180.243 8.07973 178.317 8.07973C177.169 8.07973 176.021 8.09327 174.872 8.07296C174.319 8.06618 173.927 8.24226 173.836 8.79759C173.682 9.84053 173.549 10.8835 173.381 12.0551Z" fill="black"/>
<path d="M147.898 12.0147C147.758 15.3805 146.806 18.2316 144.369 20.4733C142.359 22.3154 139.936 23.0671 137.191 22.7014C134.909 22.4034 133.27 21.1844 132.29 19.173C130.098 14.6762 132.374 8.05962 136.911 5.72994C138.634 4.84276 140.462 4.57864 142.366 4.89017C145.153 5.34391 147.156 7.37561 147.695 10.2674C147.814 10.904 147.849 11.5609 147.898 12.0147ZM144.558 12.1298C144.509 11.8047 144.467 11.1478 144.299 10.5247C143.767 8.59463 142.31 7.60587 140.251 7.72777C138.487 7.82936 137.184 8.70976 136.274 10.1049C134.937 12.1569 134.502 14.4121 134.958 16.7959C135.336 18.7599 136.841 19.8773 138.907 19.8231C140.707 19.7757 142.037 18.9089 143.017 17.5206C144.103 15.9968 144.495 14.2698 144.558 12.1298Z" fill="black"/>
<path d="M147.71 22.3898C150.518 19.3423 153.193 16.4505 155.889 13.5249C154.145 10.7753 152.43 8.05959 150.616 5.18812C151.946 5.18812 153.13 5.16781 154.313 5.20844C154.481 5.21521 154.684 5.49288 154.803 5.6825C155.672 7.07083 156.519 8.4727 157.373 9.8678C158.039 10.9514 158.403 10.9852 159.243 10.0642C160.581 8.60815 161.89 7.12501 163.262 5.69605C163.522 5.42515 163.991 5.22198 164.383 5.1949C165.37 5.12717 166.372 5.17458 167.52 5.17458C167.247 5.49965 167.079 5.70282 166.904 5.89922C164.747 8.24244 162.597 10.5992 160.405 12.9221C159.957 13.3962 159.971 13.7145 160.307 14.2359C161.89 16.6672 163.424 19.1188 164.971 21.5704C165.111 21.7939 165.237 22.0309 165.44 22.3898C164.159 22.3898 163.003 22.4169 161.848 22.3695C161.645 22.3627 161.407 22.0783 161.274 21.8684C160.265 20.2769 159.292 18.6651 158.298 17.0668C157.724 16.139 157.31 16.0983 156.575 16.8975C155.056 18.5567 153.557 20.243 152.009 21.8819C151.75 22.1528 151.274 22.3492 150.889 22.3763C149.909 22.4372 148.928 22.3898 147.71 22.3898Z" fill="black"/>
<path d="M74.1556 5.22876C74.0225 6.18366 73.8895 7.08438 73.7564 8.05959C72.559 8.05959 71.4106 8.08668 70.2692 8.05282C69.5269 8.0325 69.2118 8.3508 69.1138 9.03481C68.6796 12.1704 68.2174 15.306 67.7693 18.4416C67.6712 19.1256 67.9724 19.4777 68.6866 19.4845C69.8 19.4913 70.9134 19.4845 72.1178 19.4845C71.9778 20.48 71.8517 21.3808 71.7187 22.3357C67.6712 22.3357 63.6588 22.3357 59.5693 22.3357C59.7024 21.374 59.8354 20.4529 59.9685 19.4777C61.1659 19.4777 62.2863 19.4506 63.3997 19.4845C64.163 19.5116 64.5131 19.2068 64.6111 18.4754C65.0313 15.3602 65.4935 12.2584 65.9276 9.14316C66.0397 8.33726 65.7806 8.06636 64.9122 8.05959C63.8549 8.04605 62.7975 8.05959 61.6141 8.05959C61.7471 7.0776 61.8662 6.17689 61.9922 5.22876C66.0537 5.22876 70.0661 5.22876 74.1556 5.22876Z" fill="black"/>
<path d="M77.8799 8.08655C78.0269 7.05039 78.153 6.1429 78.279 5.21509C83.4609 5.21509 88.5797 5.21509 93.8316 5.21509C93.6985 6.17676 93.5725 7.09102 93.4324 8.08655C91.7378 8.08655 90.0922 8.11364 88.4467 8.07301C87.6204 8.05269 87.2352 8.32359 87.1232 9.14981C86.563 13.2538 85.9538 17.3579 85.3656 21.4551C85.3235 21.7463 85.2675 22.0375 85.2115 22.3491C84.1331 22.3491 83.1108 22.3491 81.9904 22.3491C82.2494 20.507 82.5015 18.7259 82.7536 16.938C83.1108 14.4458 83.4819 11.9536 83.832 9.46134C83.9931 8.31681 83.79 8.09333 82.6206 8.09333C81.087 8.08655 79.5535 8.08655 77.8799 8.08655Z" fill="black"/>
<path d="M55.8364 19.4776C55.7034 20.4731 55.5773 21.3739 55.4443 22.3288C51.3688 22.3288 47.3284 22.3288 43.2109 22.3288C44.0302 16.5994 44.8495 10.9106 45.6618 5.21509C46.7542 5.21509 47.7556 5.21509 48.848 5.21509C48.5468 7.3416 48.2457 9.4207 47.9516 11.4998C47.6295 13.7753 47.3004 16.0576 46.9853 18.3331C46.8662 19.1932 47.1183 19.4776 48.0217 19.4776C50.2905 19.4844 52.5523 19.4776 54.8211 19.4708C55.1292 19.4776 55.4303 19.4776 55.8364 19.4776Z" fill="black"/>
<path d="M13.6602 10.7075C13.6602 10.0235 13.6602 9.46143 13.6602 8.7842C13.9893 8.7842 14.2834 8.7842 14.5845 8.7842C16.6572 8.7842 18.73 8.79097 20.8027 8.77743C21.734 8.77066 22.2522 8.35754 22.2452 7.66677C22.2382 6.98276 21.713 6.58997 20.7747 6.5832C18.73 6.57642 16.6852 6.5832 14.6405 6.5832C14.3394 6.5832 14.0383 6.5832 13.6812 6.5832C13.6812 5.91951 13.6812 5.34386 13.6812 4.70726C13.9122 4.68695 14.1293 4.65308 14.3394 4.65308C16.5522 4.64631 18.765 4.63954 20.9778 4.65308C22.9175 4.66663 24.2619 5.96014 24.2409 7.73449C24.2199 9.45466 22.8544 10.694 20.9498 10.7008C18.5479 10.7143 16.146 10.7075 13.6602 10.7075Z" fill="black"/>
<path d="M26.7062 13.4911C26.4891 13.3895 26.272 13.2947 25.9989 13.1728C26.153 13.0103 26.237 12.9087 26.335 12.8207C28.3798 10.8635 29.094 8.49993 28.3518 5.83841C27.6095 3.16334 25.7258 1.50412 22.9528 0.799796C22.5607 0.691439 22.0635 0.616943 21.2092 0.616943C18.6743 0.616943 16.1394 0.616943 13.6045 0.616943C13.6045 1.23323 13.6045 1.84951 13.6045 2.55383C14.0106 2.55383 14.3118 2.55383 14.6129 2.55383C16.8537 2.55383 19.0945 2.53351 21.3283 2.5606C24.3043 2.60123 26.6151 4.86319 26.6151 7.68048C26.6151 10.5113 24.3253 12.7665 21.3353 12.8071C18.4502 12.8478 15.5722 12.8207 12.6872 12.8139C11.7348 12.8139 11.4617 12.5159 11.4547 11.5746C11.4477 7.92428 11.4337 4.26723 11.4197 0.616943C10.7475 0.616943 10.0752 0.616943 9.403 0.616943C9.42401 2.10008 9.45202 3.58999 9.45902 5.07313C9.46602 7.99878 9.45902 10.9177 9.45902 13.8433C9.45902 14.1074 9.45902 14.3715 9.45902 14.744C9.83716 14.744 10.1313 14.744 10.4254 14.744C14.8159 14.744 19.2135 14.7102 23.6041 14.7576C27.6865 14.805 30.2074 18.9903 28.2047 22.3493C27.1753 24.0763 25.5578 24.9838 23.499 24.9905C15.9994 25.0176 8.49968 24.9973 1 24.9973C1 25.6475 1 26.2976 1 26.9477C8.8428 26.9477 16.6856 26.9477 24.5284 26.9477C24.8155 26.8597 25.1096 26.7649 25.4037 26.6904C28.3868 25.9184 30.5716 23.4735 30.8727 20.575C31.1808 17.6223 29.5282 14.8117 26.7062 13.4911Z" fill="black"/>
</g>
<defs>
<clipPath id="clip0_803_4608">
<rect width="201.532" height="26.3308" fill="white" transform="translate(1 0.616943)"/>
</clipPath>
</defs>
</svg>
